<?xml version="1.0" encoding="UTF-8" standalone="no"?>
<svg width="20px" height="5px" viewBox="0 0 20 5" version="1.1" xmlns="http://www.w3.org/2000/svg" xmlns:xlink="http://www.w3.org/1999/xlink">
    <!-- Generator: Sketch 3.8.3 (29802) - http://www.bohemiancoding.com/sketch -->
    <title>DROPLETS</title>
    <desc>Created with Sketch.</desc>
    <defs></defs>
    <g id="Page-1" stroke="none" stroke-width="1" fill="none" fill-rule="evenodd" opacity="0.8">
        <g id="Desktop-Landscape" transform="translate(-650.000000, -443.000000)" fill="#B5CEE4">
            <g id="Island-Group-2" transform="translate(619.000000, 20.000000)">
                <g id="Big-Island" transform="translate(4.000000, 6.000000)">
                    <g id="DROPLETS" transform="translate(26.000000, 416.000000)">
                        <circle id="Oval-11" transform="translate(5.500000, 4.500000) rotate(-75.000000) translate(-5.500000, -4.500000) " cx="5.5" cy="4.5" r="0.5"></circle>
                        <circle id="Oval-11" transform="translate(2.000000, 5.000000) rotate(-75.000000) translate(-2.000000, -5.000000) " cx="2" cy="5" r="1"></circle>
                        <circle id="Oval-11" transform="translate(10.000000, 5.000000) rotate(-75.000000) translate(-10.000000, -5.000000) " cx="10" cy="5" r="1"></circle>
                        <circle id="Oval-11" transform="translate(20.000000, 4.000000) rotate(-75.000000) translate(-20.000000, -4.000000) " cx="20" cy="4" r="1"></circle>
                        <circle id="Oval-11" transform="translate(8.500000, 2.500000) rotate(-75.000000) translate(-8.500000, -2.500000) " cx="8.5" cy="2.5" r="0.5"></circle>
                        <circle id="Oval-11" transform="translate(17.500000, 1.500000) rotate(-75.000000) translate(-17.500000, -1.500000) " cx="17.5" cy="1.5" r="0.5"></circle>
                        <circle id="Oval-11" transform="translate(14.500000, 4.500000) rotate(-75.000000) translate(-14.500000, -4.500000) " cx="14.5" cy="4.5" r="0.5"></circle>
                    </g>
                </g>
            </g>
        </g>
    </g>
</svg>