<?xml version="1.0" encoding="UTF-8" standalone="no"?>
<svg width="257px" height="436px" viewBox="0 0 257 436" version="1.1" xmlns="http://www.w3.org/2000/svg" xmlns:xlink="http://www.w3.org/1999/xlink">
    <!-- Generator: Sketch 3.8.3 (29802) - http://www.bohemiancoding.com/sketch -->
    <title>Island Group 2</title>
    <desc>Created with Sketch.</desc>
    <defs></defs>
    <g id="Page-1" stroke="none" stroke-width="1" fill="none" fill-rule="evenodd">
        <g id="Desktop-Landscape" transform="translate(-618.000000, -19.000000)">
            <g id="Island-Group-2" transform="translate(619.000000, 20.000000)">
                <g id="Small-Island-2" transform="translate(0.000000, 93.000000)" stroke-linecap="round" stroke-linejoin="round">
                    <g id="Rocks" transform="translate(3.000000, 40.000000)" stroke="#A39180">
                        <path d="M14.4857143,12 C16.1505385,12 22.9714286,1 22.9714286,1 L6,1 C6,1 12.8208901,12 14.4857143,12 Z" id="Back-Rock" stroke-width="2" fill="#C3A68B"></path>
                        <path d="M12.3409761,10.142658 C13.2166951,9.59114994 14.2694365,8.77909028 15.5300739,7.72256214 L15.5300739,7.72256214 C15.8397395,8.17963191 16.1487782,8.63012966 16.4556002,9.07112123 C16.6192949,9.30639777 16.7811888,9.5372513 16.9411408,9.76341831 C19.5314777,6.54758379 22.9714286,1 22.9714286,1 L6,1 C6,1 9.72463553,7.00669274 12.3409761,10.142658 L12.3409761,10.142658 Z" id="Shadow" fill="#A39180" opacity="0.597831157"></path>
                        <path d="M10.1714286,8 C12.1669754,8 20.3428571,0 20.3428571,0 L0,0 C0,0 8.1758817,8 10.1714286,8 Z" id="Rock-2" stroke-width="2" fill="#C3A68B"></path>
                        <path d="M23.0285714,13 C24.996091,13 33.0571429,0 33.0571429,0 L13,0 C13,0 21.0610519,13 23.0285714,13 Z" id="Rock-1" stroke-width="2" fill="#C3A68B"></path>
                        <path d="M31.8186467,2.95095412 C31.121962,4.03181133 30.19222,5.44922381 29.1908027,6.9067552 C27.4498905,7.34684572 25.511011,7.60005608 23.3815789,7.60005608 C20.4054624,7.60005608 17.7319705,7.08766364 15.3791263,6.20313677 L16.0603324,6.21131821 C14.1149405,6.88980397 11.9639393,7.27110871 9.61842105,7.27110871 C8.68347214,7.27110871 7.78382235,7.2275695 6.92751444,7.14409855 L6.92751444,7.14409855 C5.33602083,5.91639672 3.52855388,4.30616899 2.15898928,3.04215965 C3.91303468,3.75260936 6.43299451,4.27110871 9.61842105,4.27110871 C12.0735209,4.27110871 14.1211232,3.82857382 15.7310205,3.267097 C17.6124976,3.9744184 20.1812402,4.60005608 23.3815789,4.60005608 C27.0533263,4.60005608 29.8937058,3.77653151 31.8186467,2.95095412 L31.8186467,2.95095412 Z" id="Combined-Shape" fill="#A39180" opacity="0.597831157"></path>
                    </g>
                    <g id="Rock-Lines" transform="translate(11.000000, 44.000000)" stroke="#A39180">
                        <path d="M15.5,6.5 L16.5,3.5" id="Path-30"></path>
                        <path d="M6.5,5.5 L7.5,4.5" id="Path-30"></path>
                        <path d="M1.5,1.5 L0.5,0.5" id="Path-30"></path>
                    </g>
                    <path d="M36.8947692,40.8847793 C36.9940057,40.8326587 37.08849,40.7727111 37.177392,40.7057591 C37.5654386,40.4523119 37.7631579,40.2894737 37.7631579,40.2894737 L37.5920201,40.2894737 C37.8482298,39.9463448 38,39.5210002 38,39.0603464 C38,37.9145153 37.0755498,37 35.9351827,37 L4.06481727,37 C2.92606968,37 2,37.9224485 2,39.0603464 C2,39.8956315 2.49126041,40.6079935 3.19930634,40.9327713 C3.48259087,41.1602309 3.82857086,41.3992546 4.23745888,41.6158174 C5.97360759,42.5353487 8.8238596,43.2711087 12.6184211,43.2711087 C15.0735209,43.2711087 17.1211232,42.8285738 18.7310205,42.267097 C20.6124976,42.9744184 23.1812402,43.6000561 26.3815789,43.6000561 C31.7527085,43.6000561 35.344826,41.8378275 36.8947692,40.8847793 L36.8947692,40.8847793 Z" id="Grass" stroke="#84AA58" stroke-width="2" fill="#B8E986"></path>
                    <g id="Trees" stroke-width="2">
                        <g id="Tree">
                            <rect id="Rectangle-5" stroke="#7F7368" fill="#9C8A7B" x="7.61904762" y="27.2631579" width="3.80952381" height="9.73684211"></rect>
                            <path d="M13.5087719,15.5789474 L17.1428571,15.5789474 L10,0 L2.85714286,15.5789474 L6.49122807,15.5789474 L0.476190476,27.2631579 L19.5238095,27.2631579 L13.5087719,15.5789474 Z" id="Combined-Shape" stroke="#6F7C60" fill="#88947B"></path>
                        </g>
                        <g id="Tree" transform="translate(15.000000, 9.000000)">
                            <rect id="Rectangle-5" stroke="#7F7368" fill="#9C8A7B" x="4.95238095" y="20.6315789" width="2.47619048" height="7.36842105"></rect>
                            <path d="M8.78070175,11.7894737 L11.1428571,11.7894737 L6.5,0 L1.85714286,11.7894737 L4.21929825,11.7894737 L0.30952381,20.6315789 L12.6904762,20.6315789 L8.78070175,11.7894737 Z" id="Combined-Shape" stroke="#6F7C60" fill="#88947B"></path>
                        </g>
                    </g>
                    <g id="Tufts" transform="translate(30.000000, 32.000000)" stroke="#84AA58" stroke-width="2">
                        <polyline id="Path-19" transform="translate(5.233854, 2.311448) rotate(20.000000) translate(-5.233854, -2.311448) " points="6.68990682 1.54421742 5.14130361 4.18946903 3.77780181 0.433426801"></polyline>
                        <path d="M3.69824219,3.14160156 L1,2" id="Path-21"></path>
                    </g>
                </g>
                <g id="Big-Island" transform="translate(4.000000, 6.000000)">
                    <g id="Rocks" transform="translate(1.000000, 64.000000)" stroke="#A39180" stroke-linecap="round" stroke-linejoin="round">
                        <path d="M66,60 C71.297168,60 93,25 93,25 L39,25 C39,25 60.702832,60 66,60 Z" id="Back-Rock" stroke-width="2" fill="#C3A68B"></path>
                        <path d="M132.43717,4 C134.05287,1.50093331 135,0 135,0 L51,0 C51,0 51.6979268,1.10601673 52.9175749,3 L4,3 C4,3 37.7599609,40 46,40 C49.7026029,40 58.5579083,32.5293661 67.1876669,24.3018506 C77.0733009,38.4409538 88.6282923,53.5 93,53.5 C97.8101112,53.5 111.316453,35.2692104 121.727095,20.0920268 C124.598847,23.9608371 127.251953,27 128.5,27 C131.93335,27 146,4 146,4 L132.43717,4 L132.43717,4 Z" id="Combined-Rocks" stroke-width="2" fill="#C3A68B"></path>
                        <g id="Shadows" fill="#A39180" opacity="0.597831157">
                            <path d="M79.4702825,45.3611116 C80.0315198,44.5754523 80.5915938,43.7818851 81.1469292,42.986977 C76.8810416,37.8156102 72.1261152,31.3419371 67.6766345,25 L66.4528864,25 C59.554745,31.5315612 52.6100577,37.4590186 48.3576436,39.3634614 C48.9714783,40.2667822 49.5988531,41.1816297 50.2342935,42.0979476 C54.4723626,39.8002609 60.5093425,34.741362 68.2227233,27.3875109 L65.9583397,27.1613591 C71.0858629,34.4950899 75.5977909,40.6130532 79.4702825,45.3611116 L79.4702825,45.3611116 Z" id="Shadow"></path>
                            <path d="M119.999114,10.1187361 C119.97451,10.4569718 119.832615,10.7946801 119.549066,11.0721294 C119.512049,11.1083468 119.443314,11.17534 119.342795,11.2729027 C119.176103,11.4346928 118.982119,11.6221372 118.762755,11.8331041 C118.136871,12.4350301 117.432465,13.1054027 116.664806,13.827186 C114.470997,15.8898907 112.20829,17.9528643 109.997847,19.8805093 C109.270028,20.5152128 108.558324,21.12594 107.865281,21.7098122 C102.267432,26.4258639 98.4662251,29 96.25,29 C94.0337749,29 90.2325683,26.4258639 84.6347195,21.7098122 C83.9416761,21.12594 83.2299722,20.5152128 82.5021533,19.8805093 C80.2917096,17.9528643 78.0290025,15.8898907 75.8351942,13.827186 C75.0933232,13.1296498 74.4105276,12.4801283 73.8005872,11.8939974 C74.9503853,11.5925795 76.0412451,11.270153 77.0702651,10.9293365 C82.3797393,15.9112238 93.0187351,25.5 96.25,25.5 C100.09063,25.5 114.396401,11.9536264 117.77954,8.69754705 C118.461398,9.1860795 119.201609,9.66609472 119.999114,10.1187361 L119.999114,10.1187361 Z" id="Shadow"></path>
                            <path d="M32.1507336,31.0222224 C31.0483996,32.2403004 39.3506508,22.1549352 44.6953903,14.2853957 C45.6845296,14.3670693 46.6949457,14.4293246 47.7264558,14.4701581 C46.3863954,16.477009 45.0441515,18.4502414 43.7177366,20.3566818 C42.8376047,21.621685 41.9771078,22.8386932 41.1393662,24.001918 C38.5348033,27.6184182 36.2720262,30.5832102 34.3127782,32.868108 C33.604715,32.2766074 32.8828114,31.6597867 32.1507336,31.0222224 Z" id="Shadow"></path>
                        </g>
                        <path d="M96.25,25.5 C100.615259,25.5 118.5,8 118.5,8 L74,8 C74,8 91.8847412,25.5 96.25,25.5 Z" id="Rock-2" stroke-width="2" fill="#C3A68B"></path>
                        <path d="M27,35 C32.297168,35 54,0 54,0 L0,0 C0,0 21.702832,35 27,35 Z" id="Rock-1" stroke-width="2" fill="#C3A68B"></path>
                    </g>
                    <path d="M139.690883,79.2761815 C140.940343,77.450337 142.142475,75.632018 143.198375,74.0054184 C140.250279,75.7154181 136.498989,77.0641705 132,77.0641705 C124.907752,77.0641705 119.673583,73.7124309 116.514903,70.8774856 C112.745301,74.1699031 106.66158,77.9180966 98.5,77.9180966 C91.4676768,77.9180966 85.9318293,75.9813404 82.1225465,73.3503017 C75.5205002,76.3849293 64.8873725,78.526906 51.6075987,78.526906 C37.922524,78.526906 27.661177,74.7225668 21.2061028,71.3069085 C19.2907738,72.2824923 16.9518654,73 14.2151975,73 C10.5139164,73 7.51844076,72.0865384 5.32601695,70.7847425 C6.3120861,72.3021968 7.42363962,73.9944069 8.6139411,75.7755244 C10.328347,76.2467458 12.211596,76.5 14.2151975,76.5 C16.9789593,76.5 19.5425204,75.8376375 21.8869085,74.64351 L20.5045494,74.6327376 C29.147998,79.2063593 39.5514763,82.026906 51.6075987,82.026906 C64.3829193,82.026906 75.4843744,80.0524054 82.7490106,76.7132186 L81.2700806,76.5845228 C85.7087361,79.6502638 91.6644202,81.4180966 98.5,81.4180966 C105.917968,81.4180966 112.275382,78.5719219 117.501644,74.007239 L115.512993,73.9938081 C120.003773,78.0243261 125.520797,80.5641705 132,80.5641705 C134.726147,80.5641705 137.291608,80.1103314 139.690883,79.2761815 L139.690883,79.2761815 Z" id="Shadow" stroke="#A39180" stroke-linecap="round" stroke-linejoin="round" fill="#A39180" opacity="0.597831157"></path>
                    <path d="M150.764686,67 C151.540972,65.9568882 152,64.6638406 152,63.263453 C152,59.8112822 149.194688,57 145.734161,57 L6.26583915,57 C2.80089383,57 0,59.8042434 0,63.263453 C0,65.1725453 0.857927211,66.8856395 2.21014985,68.0356711 C2.5735235,68.5226107 3.0189391,69.035717 3.54667868,69.4999998 C5.75670358,71.4442857 9.38492269,73 14.2151975,73 C16.9518654,73 19.2907738,72.2824923 21.2061028,71.3069085 C27.661177,74.7225668 37.922524,78.526906 51.6075987,78.526906 C64.8873725,78.526906 75.5205002,76.3849293 82.1225465,73.3503017 C85.9318293,75.9813404 91.4676768,77.9180966 98.5,77.9180966 C106.66158,77.9180966 112.745301,74.1699031 116.514903,70.8774856 C119.673583,73.7124309 124.907752,77.0641705 132,77.0641705 C144.289601,77.0641705 151,67 151,67 L150.764686,67 L150.764686,67 Z" id="Grass" stroke="#84AA58" stroke-width="2" stroke-linecap="round" stroke-linejoin="round" fill="#B8E986"></path>
                    <g id="Trees" transform="translate(74.000000, 28.500000) scale(-1, 1) translate(-74.000000, -28.500000) translate(9.000000, 0.000000)" stroke-linecap="round" stroke-width="2" stroke-linejoin="round">
                        <g id="Tree" transform="translate(27.000000, 6.000000)">
                            <rect id="Rectangle-5" stroke="#7F7368" fill="#9C8A7B" x="8.76190476" y="37.5789474" width="4.38095238" height="13.4210526"></rect>
                            <path d="M15.5350877,21.4736842 L19.7142857,21.4736842 L11.5,0 L3.28571429,21.4736842 L7.46491228,21.4736842 L0.547619048,37.5789474 L22.452381,37.5789474 L15.5350877,21.4736842 Z" id="Combined-Shape" stroke="#6F7C60" fill="#88947B"></path>
                        </g>
                        <g id="Tree">
                            <rect id="Rectangle-5" stroke="#7F7368" fill="#9C8A7B" x="11.8095238" y="42" width="5.9047619" height="15"></rect>
                            <path d="M20.9385965,24 L26.5714286,24 L15.5,0 L4.42857143,24 L10.0614035,24 L0.738095238,42 L30.2619048,42 L20.9385965,24 Z" id="Combined-Shape" stroke="#6F7C60" fill="#88947B"></path>
                        </g>
                        <g id="Tree" transform="translate(62.000000, 6.000000)">
                            <rect id="Rectangle-5" stroke="#7F7368" fill="#9C8A7B" x="10.6666667" y="37.5789474" width="5.33333333" height="13.4210526"></rect>
                            <path d="M18.9122807,21.4736842 L24,21.4736842 L14,0 L4,21.4736842 L9.0877193,21.4736842 L0.666666667,37.5789474 L27.3333333,37.5789474 L18.9122807,21.4736842 Z" id="Combined-Shape" stroke="#6F7C60" fill="#88947B"></path>
                        </g>
                        <g id="Tree" transform="translate(37.000000, 2.000000)">
                            <rect id="Rectangle-5" stroke="#7F7368" fill="#9C8A7B" x="11.4285714" y="40.5263158" width="5.71428571" height="14.4736842"></rect>
                            <path d="M20.2631579,23.1578947 L25.7142857,23.1578947 L15,0 L4.28571429,23.1578947 L9.73684211,23.1578947 L0.714285714,40.5263158 L29.2857143,40.5263158 L20.2631579,23.1578947 Z" id="Combined-Shape" stroke="#6F7C60" fill="#88947B"></path>
                        </g>
                        <g id="Tree" transform="translate(53.000000, 19.000000)">
                            <rect id="Rectangle-5" stroke="#7F7368" fill="#9C8A7B" x="8" y="28" width="4" height="10"></rect>
                            <path d="M14.1842105,16 L18,16 L10.5,0 L3,16 L6.81578947,16 L0.5,28 L20.5,28 L14.1842105,16 Z" id="Combined-Shape" stroke="#6F7C60" fill="#88947B"></path>
                        </g>
                        <g id="Tree" transform="translate(107.000000, 14.000000)">
                            <rect id="Rectangle-5" stroke="#7F7368" fill="#9C8A7B" x="8.76190476" y="31.6842105" width="4.38095238" height="11.3157895"></rect>
                            <path d="M15.5350877,18.1052632 L19.7142857,18.1052632 L11.5,0 L3.28571429,18.1052632 L7.46491228,18.1052632 L0.547619048,31.6842105 L22.452381,31.6842105 L15.5350877,18.1052632 Z" id="Combined-Shape" stroke="#6F7C60" fill="#88947B"></path>
                        </g>
                        <g id="Tree" transform="translate(17.000000, 14.000000)">
                            <rect id="Rectangle-5" stroke="#7F7368" fill="#9C8A7B" x="8.76190476" y="31.6842105" width="4.38095238" height="11.3157895"></rect>
                            <path d="M15.5350877,18.1052632 L19.7142857,18.1052632 L11.5,0 L3.28571429,18.1052632 L7.46491228,18.1052632 L0.547619048,31.6842105 L22.452381,31.6842105 L15.5350877,18.1052632 Z" id="Combined-Shape" stroke="#6F7C60" fill="#88947B"></path>
                        </g>
                        <g id="Tree" transform="translate(80.000000, 20.000000)">
                            <rect id="Rectangle-5" stroke="#7F7368" fill="#9C8A7B" x="7.61904762" y="27.2631579" width="3.80952381" height="9.73684211"></rect>
                            <path d="M13.5087719,15.5789474 L17.1428571,15.5789474 L10,0 L2.85714286,15.5789474 L6.49122807,15.5789474 L0.476190476,27.2631579 L19.5238095,27.2631579 L13.5087719,15.5789474 Z" id="Combined-Shape" stroke="#6F7C60" fill="#88947B"></path>
                        </g>
                    </g>
                    <g id="Grass-Tufts" transform="translate(76.500000, 54.500000) scale(-1, 1) translate(-76.500000, -54.500000) translate(7.000000, 51.000000)" stroke="#84AA58" stroke-width="2" stroke-linecap="round" stroke-linejoin="round">
                        <polyline id="Path-19" points="60.921875 2.56380553 63.4873047 5.75097656 65.7460938 1.22545282"></polyline>
                        <polyline id="----------------" transform="translate(30.925626, 4.741324) scale(-1, 1) rotate(-14.000000) translate(-30.925626, -4.741324) " points="29.3174794 3.83576413 30.8153123 5.64688305 32.5337723 3.83576413"></polyline>
                        <g id="Tufts" transform="translate(131.000000, 2.000000)">
                            <polyline id="Path-19" transform="translate(5.233854, 2.311448) rotate(20.000000) translate(-5.233854, -2.311448) " points="6.68990682 1.54421742 5.14130361 4.18946903 3.77780181 0.433426801"></polyline>
                            <path d="M3.69824219,3.14160156 L1,2" id="Path-21"></path>
                        </g>
                        <g id="Tufts">
                            <polyline id="Path-19" points="0.921875 2.56380553 3.48730469 5.75097656 4.10449219 0.899902344"></polyline>
                            <path d="M6.54964463,3 L5,5.48643652" id="Path-21"></path>
                        </g>
                    </g>
                    <g id="Rock-Lines" transform="translate(23.000000, 82.000000)" stroke="#A39180" stroke-linecap="round" stroke-linejoin="round">
                        <path d="M47.5,33.5 L50.5,22.5" id="Path-30"></path>
                        <path d="M24.5,18.5 L31.5,9.5" id="Path-30"></path>
                        <path d="M4.5,13.5 L2.5,11.5" id="Path-30"></path>
                        <path d="M5.5,10.5 L0.5,1.5" id="Path-30"></path>
                        <path d="M45.3208759,37.1630433 L44.5,32.5" id="Path-30"></path>
                        <path d="M67.5,27.5 L55.5,13.5" id="Path-30"></path>
                        <path d="M88.5,6.5 L93.5,0.5" id="Path-30"></path>
                        <path d="M106.5,5.5 L106.5,4.5" id="Path-30"></path>
                        <path d="M104.5,3.5 L103.5,0.5" id="Path-30"></path>
                        <path d="M73.5,3.5 L71.5,1.5" id="Path-30"></path>
                        <path d="M75.5,3.5 L76.5,2.5" id="Path-30"></path>
                        <path d="M58.5,12.5 L55.5,9.5" id="Path-30"></path>
                    </g>
                    <path d="M44.5020806,422.302307 C44.5020806,416.6125 38.6934496,412 31.52814,412 C24.3628305,412 18.5541994,416.6125 18.5541994,422.302307 C18.5541994,427.992114 24.3628305,426.940357 31.52814,426.940357 C38.6934496,426.940357 44.5020806,427.992114 44.5020806,422.302307 Z" id="Oval-1" stroke="#ADAFAB" stroke-width="2" stroke-linecap="round" stroke-linejoin="round" fill="#CBD0C6"></path>
                    <path d="M42.3023069,427.039966 C46.8875443,427.039966 50.6046137,427.887544 50.6046137,423.302307 C50.6046137,418.717069 46.8875443,415 42.3023069,415 C37.7170694,415 34,418.717069 34,423.302307 C34,427.887544 37.7170694,427.039966 42.3023069,427.039966 Z" id="Oval-1" stroke="#ADAFAB" stroke-width="2" stroke-linecap="round" stroke-linejoin="round" fill="#CBD0C6"></path>
                    <g id="Waterfall" transform="translate(29.000000, 55.000000)" stroke="#6C86A2" stroke-width="2" fill="#A0BAD9" stroke-linecap="round" opacity="0.8" stroke-linejoin="round">
                        <rect id="Water" x="0" y="0" width="15" height="372" rx="3"></rect>
                        <path d="M3.5,12.6702997 L3.5,65.8879714" id="Line"></path>
                        <path d="M11.5,57.7708089 L11.5,68.9264305" id="Line"></path>
                        <path d="M11.5,86.6648501 L11.5,121.634877" id="Line"></path>
                        <path d="M9.5,5.06811989 L9.5,48.653951" id="Line"></path>
                        <path d="M6.5,113.525886 L6.5,210.83511" id="Line"></path>
                        <path d="M5.5,77.8245871 L5.5,92.2411044" id="Line"></path>
                        <path d="M11.5,193.60218 L11.5,274.69342" id="Line"></path>
                        <path d="M11.5,298.00545 L11.5,368.959128" id="Line"></path>
                        <path d="M3.5,302.059946 L3.5,353.777122" id="Line"></path>
                        <path d="M7.5,337.531916 L7.5,363.913361" id="Line"></path>
                        <path d="M3.5,220.970027 L3.5,262.529933" id="Line"></path>
                        <path d="M6.5,254.412581 L6.5,301.049075" id="Line"></path>
                        <path d="M12.5,148.24805 L12.5,177.385519" id="Line"></path>
                    </g>
                    <rect id="Rectangle-37" stroke="#6C86A2" stroke-width="2" stroke-linecap="round" stroke-linejoin="round" fill="#A0BAD9" opacity="0.8" x="21" y="421" width="27" height="5" rx="2.5"></rect>
                    <g id="DROPLETS" transform="translate(26.000000, 418.000000)" fill="#D6E1EB" opacity="0.8">
                        <circle id="Oval-11" cx="4.5" cy="0.5" r="0.5"></circle>
                        <circle id="Oval-11" cx="3.5" cy="4.5" r="0.5"></circle>
                        <circle id="Oval-11" cx="1" cy="2" r="1"></circle>
                        <circle id="Oval-11" cx="16" cy="5" r="1"></circle>
                        <circle id="Oval-11" cx="6" cy="5" r="1"></circle>
                        <circle id="Oval-11" cx="11" cy="2" r="1"></circle>
                        <circle id="Oval-11" cx="19" cy="4" r="1"></circle>
                        <circle id="Oval-11" cx="7.5" cy="2.5" r="0.5"></circle>
                        <circle id="Oval-11" cx="19.5" cy="1.5" r="0.5"></circle>
                        <circle id="Oval-11" cx="14.5" cy="0.5" r="0.5"></circle>
                        <circle id="Oval-11" cx="13.5" cy="3.5" r="0.5"></circle>
                    </g>
                    <g id="DROPLETS" opacity="0.8" transform="translate(26.000000, 416.000000)" fill="#B5CEE4">
                        <circle id="Oval-11" transform="translate(5.500000, 4.500000) rotate(-75.000000) translate(-5.500000, -4.500000) " cx="5.5" cy="4.5" r="0.5"></circle>
                        <circle id="Oval-11" transform="translate(2.000000, 5.000000) rotate(-75.000000) translate(-2.000000, -5.000000) " cx="2" cy="5" r="1"></circle>
                        <circle id="Oval-11" transform="translate(10.000000, 5.000000) rotate(-75.000000) translate(-10.000000, -5.000000) " cx="10" cy="5" r="1"></circle>
                        <circle id="Oval-11" transform="translate(20.000000, 4.000000) rotate(-75.000000) translate(-20.000000, -4.000000) " cx="20" cy="4" r="1"></circle>
                        <circle id="Oval-11" transform="translate(8.500000, 2.500000) rotate(-75.000000) translate(-8.500000, -2.500000) " cx="8.5" cy="2.5" r="0.5"></circle>
                        <circle id="Oval-11" transform="translate(17.500000, 1.500000) rotate(-75.000000) translate(-17.500000, -1.500000) " cx="17.5" cy="1.5" r="0.5"></circle>
                        <circle id="Oval-11" transform="translate(14.500000, 4.500000) rotate(-75.000000) translate(-14.500000, -4.500000) " cx="14.5" cy="4.5" r="0.5"></circle>
                    </g>
                    <g id="Rocks" transform="translate(15.000000, 50.000000)" stroke="#ADAFAB" stroke-width="2" fill="#CBD0C6" stroke-linecap="round" stroke-linejoin="round">
                        <path d="M32.5,7.07568359 C34.4329966,7.07568359 36,7.43299662 36,5.5 C36,3.56700338 34.4329966,2 32.5,2 C30.5670034,2 29,3.56700338 29,5.5 C29,7.43299662 30.5670034,7.07568359 32.5,7.07568359 Z" id="Oval-1"></path>
                        <path d="M36.1279123,7.08588848 C37.3031259,7.08588848 38.2558247,7.30312585 38.2558247,6.12791233 C38.2558247,4.9526988 37.3031259,4 36.1279123,4 C34.9526988,4 34,4.9526988 34,6.12791233 C34,7.30312585 34.9526988,7.08588848 36.1279123,7.08588848 Z" id="Oval-1"></path>
                        <path d="M8.87208767,7.06547871 C11.5628674,7.06547871 13.7441753,7.5628674 13.7441753,4.87208767 C13.7441753,2.18130795 11.5628674,0 8.87208767,0 C6.18130795,0 4,2.18130795 4,4.87208767 C4,7.5628674 6.18130795,7.06547871 8.87208767,7.06547871 Z" id="Oval-1"></path>
                        <path d="M13.1279123,7.08588848 C14.3031259,7.08588848 15.2558247,7.30312585 15.2558247,6.12791233 C15.2558247,4.9526988 14.3031259,4 13.1279123,4 C11.9526988,4 11,4.9526988 11,6.12791233 C11,7.30312585 11.9526988,7.08588848 13.1279123,7.08588848 Z" id="Oval-1"></path>
                        <path d="M2.81395616,7.08078604 C4.36806124,7.08078604 5.62791233,7.36806124 5.62791233,5.81395616 C5.62791233,4.25985109 4.36806124,3 2.81395616,3 C1.25985109,3 0,4.25985109 0,5.81395616 C0,7.36806124 1.25985109,7.08078604 2.81395616,7.08078604 Z" id="Oval-1"></path>
                    </g>
                </g>
                <g id="Little-Island" transform="translate(93.000000, 67.000000)" stroke-linecap="round" stroke-linejoin="round">
                    <path d="M29.6211494,53.6203055 C26.6173139,57.7108994 23.7983527,61 22.5,61 C19.0666504,61 5,38 5,38 L31.5,38 L58,38 C58,38 43.9333496,73 40.5,73 C38.6601874,73 33.7670061,62.9496964 29.6211494,53.6203055 Z" id="Rocks" stroke="#A39180" stroke-width="2" fill="#C3A68B"></path>
                    <path d="M10.7521259,46.9706935 C7.5545544,42.1768829 5,38 5,38 L31.5,38 L58,38 C58,38 56.9606964,40.585948 55.3781372,44.3520372 C54.4090267,44.6311744 53.3842968,44.7811687 52.3059211,44.7811687 C50.5045014,44.7811687 48.8300192,44.355433 47.2985226,43.5876403 L47.9707747,42.2467163 L48.9603768,43.3739641 C45.4717009,46.4366456 40.3672168,48.2188313 34.5677072,48.2188313 C31.0869447,48.2188313 27.8553868,47.198715 24.8976781,45.3570335 L26.4249008,45.3916501 C23.638546,46.9560739 20.5535118,47.8360165 17.1940789,47.8360165 C14.8812842,47.8360165 12.7139141,47.5328197 10.7521259,46.9706935 L10.7521259,46.9706935 Z" id="Grass-Shadow" stroke="#A39180" fill="#A39180" opacity="0.597831157"></path>
                    <path d="M60.5211182,36.8815789 C60.8218246,36.4766869 61,35.9747802 61,35.4312087 C61,34.079128 59.9152465,33 58.5771352,33 L4.42286478,33 C3.08718905,33 2,34.0884892 2,35.4312087 C2,36.1111265 2.27430808,36.7220211 2.71720132,37.1613767 C3.1432738,37.9542113 3.98365365,39.3082224 5.24138226,40.4147186 C7.71742959,42.5930397 11.7823803,44.3360165 17.1940789,44.3360165 C20.5840173,44.3360165 23.4292042,43.3533545 25.6905435,42.0837054 C28.1488625,43.6144311 31.1178922,44.7188313 34.5677072,44.7188313 C40.3121919,44.7188313 44.9622883,42.8878432 47.9707747,40.2467163 C49.1635612,40.8447018 50.6137606,41.2811687 52.3059211,41.2811687 C57.6783662,41.2811687 60.6118421,36.8815789 60.6118421,36.8815789 L60.5211182,36.8815789 L60.5211182,36.8815789 Z" id="Grass" stroke="#84AA58" stroke-width="2" fill="#B8E986"></path>
                    <g id="Grass-Tufts" transform="translate(18.000000, 27.000000)" stroke="#84AA58" stroke-width="2">
                        <g id="Tufts" transform="translate(36.000000, 0.000000)">
                            <polyline id="Path-19" transform="translate(3.921840, 2.910097) rotate(20.000000) translate(-3.921840, -2.910097) " points="4.92184003 1.92173349 3.85827728 5.32940577 2.92184003 0.490788183"></polyline>
                            <path d="M1.36328125,4.24902344 L0,3" id="Path-21"></path>
                        </g>
                        <polyline id="----------------" transform="translate(2.902362, 3.728412) scale(-1, 1) rotate(-14.000000) translate(-2.902362, -3.728412) " points="0.610095008 2.4376196 2.74511981 5.01920517 5.19462843 2.4376196"></polyline>
                    </g>
                    <g id="Rock-Lines" transform="translate(19.000000, 47.000000)" stroke="#A39180">
                        <path d="M22,17.2714844 L27.9482422,5" id="Path-30"></path>
                        <path d="M22,22.2714844 L26.5,13.5" id="Path-30"></path>
                        <path d="M9.5,3.5 L8.5,1.5" id="Path-32"></path>
                        <path d="M11,3.87482496 L11.5,2.5" id="Path-32"></path>
                        <path d="M3.39931774,10.8009076 L0.5,7.5" id="Path-32"></path>
                    </g>
                    <g id="Trees" stroke-width="2">
                        <g id="Tree" transform="translate(39.000000, 5.000000)">
                            <rect id="Rectangle-5" stroke="#7F7368" fill="#9C8A7B" x="6.47619048" y="20.6315789" width="3.23809524" height="7.36842105"></rect>
                            <path d="M11.4824561,11.7894737 L14.5714286,11.7894737 L8.5,0 L2.42857143,11.7894737 L5.51754386,11.7894737 L0.404761905,20.6315789 L16.5952381,20.6315789 L11.4824561,11.7894737 Z" id="Combined-Shape" stroke="#6F7C60" fill="#88947B"></path>
                        </g>
                        <g id="Tree" transform="translate(26.000000, 0.000000)">
                            <rect id="Rectangle-5" stroke="#7F7368" fill="#9C8A7B" x="7.61904762" y="24.3157895" width="3.80952381" height="8.68421053"></rect>
                            <path d="M13.5087719,13.8947368 L17.1428571,13.8947368 L10,0 L2.85714286,13.8947368 L6.49122807,13.8947368 L0.476190476,24.3157895 L19.5238095,24.3157895 L13.5087719,13.8947368 Z" id="Combined-Shape" stroke="#6F7C60" fill="#88947B"></path>
                        </g>
                        <g id="Tree" transform="translate(22.000000, 8.000000)">
                            <rect id="Rectangle-5" stroke="#7F7368" fill="#9C8A7B" x="5.71428571" y="18.4210526" width="2.85714286" height="6.57894737"></rect>
                            <path d="M10.1315789,10.5263158 L12.8571429,10.5263158 L7.5,0 L2.14285714,10.5263158 L4.86842105,10.5263158 L0.357142857,18.4210526 L14.6428571,18.4210526 L10.1315789,10.5263158 Z" id="Combined-Shape" stroke="#6F7C60" fill="#88947B"></path>
                        </g>
                        <g id="Tree" transform="translate(0.000000, 5.000000)">
                            <rect id="Rectangle-5" stroke="#7F7368" fill="#9C8A7B" x="6.47619048" y="20.6315789" width="3.23809524" height="7.36842105"></rect>
                            <path d="M11.4824561,11.7894737 L14.5714286,11.7894737 L8.5,0 L2.42857143,11.7894737 L5.51754386,11.7894737 L0.404761905,20.6315789 L16.5952381,20.6315789 L11.4824561,11.7894737 Z" id="Combined-Shape" stroke="#6F7C60" fill="#88947B"></path>
                        </g>
                    </g>
                </g>
                <g id="Medium-Island" transform="translate(166.000000, 0.000000)" stroke-linecap="round" stroke-linejoin="round">
                    <g id="Rocks" transform="translate(1.000000, 80.000000)" stroke="#A39180">
                        <path d="M20.5,24 C24.5219238,24 41,3 41,3 L0,3 C0,3 16.4780762,24 20.5,24 Z" id="Back-Rock" stroke-width="2" fill="#C3A68B"></path>
                        <path d="M60.5,29 C65.5028809,29 86,3 86,3 L35,3 C35,3 55.4971191,29 60.5,29 Z" id="Back-Rock" stroke-width="2" fill="#C3A68B"></path>
                        <path d="M41.5,33 C46.5028809,33 67,3 67,3 L16,3 C16,3 36.4971191,33 41.5,33 Z" id="Back-Rock" stroke-width="2" fill="#C3A68B"></path>
                        <g id="Shadows" transform="translate(15.000000, 6.000000)" fill="#A39180" opacity="0.597831157">
                            <path d="M12.4338089,12.727719 C11.7617782,13.4123362 11.1061441,14.0571461 10.4786555,14.6450942 C8.01621307,11.4249811 5.5000122,7.99067255 3.05836569,4.55672071 C2.1802643,3.32175164 1.37458872,2.17484846 0.65885854,1.14524149 C0.626025745,1.09801018 0.593691544,1.05147015 0.561860861,1.00562961 C1.56533663,0.841840862 2.49008729,0.614574237 3.33388218,0.350142477 L3.33388218,0.350142477 C5.4816449,3.3961006 8.86651706,8.1080389 12.4338089,12.727719 L12.4338089,12.727719 L12.4338089,12.727719 Z M39.2666278,18.8085862 C38.6250924,18.2092162 37.9601484,17.5626788 37.2798729,16.880644 C41.6447082,11.5170472 46.2166921,5.21905736 49.0849796,1.17218097 C50.0779901,1.26204162 51.1172922,1.32202785 52.2020648,1.34515805 L52.2020648,1.34515806 C51.5215753,2.32260006 50.7633135,3.4011043 49.9416343,4.55672071 C47.4322468,8.08594406 44.8441107,11.6155441 42.3165175,14.9126113 C41.4846005,15.9977884 40.6712057,17.0418409 39.8792711,18.0398161 C39.6728174,18.2999837 39.4686094,18.5562458 39.2666278,18.8085862 L39.2666278,18.8085862 L39.2666278,18.8085862 Z" id="Shadow"></path>
                            <path d="M16.0013746,0.82512302 C16.1334966,1.03310292 16.2694603,1.24640927 16.408998,1.46454542 C17.692033,3.47028426 19.0154485,5.47641437 20.3087687,7.35162985 C20.7348292,7.96938499 21.1515261,8.56390404 21.5573971,9.13242035 C25.1177236,14.1194821 27.2320103,16.5 29,16.5 C31.0841922,16.5 33.9989887,12.8722908 38.8856027,5.59591013 L36.3954874,5.59647984 C42.1174932,14.1083775 45.6605946,18.5 48,18.5 C49.9960106,18.5 52.6157021,15.5395927 56.8799097,9.54462282 C57.3782974,8.84394897 57.8900683,8.11109941 58.4134045,7.34951214 C59.9023918,5.18265724 61.4242494,2.87344855 62.9074054,0.555584077 C61.8550079,0.747241872 60.7199788,0.910937959 59.5051346,1.03940416 C55.4783821,7.14178747 49.9202254,15 48,15 C46.256322,15 41.5129103,8.5203439 37.6403537,2.7596357 C34.4553653,7.50222189 30.4504156,13 29,13 C27.4383015,13 22.9150392,6.62622655 19.6425485,1.684175 C18.9222022,1.40090096 18.2463879,1.07804781 17.6184438,0.721771127 C17.091355,0.770873468 16.5522953,0.805832335 16.0013746,0.82512302 L16.0013746,0.82512302 Z" id="Shadow"></path>
                        </g>
                        <path d="M48.2466241,2 C47.4677538,0.763772445 47,0 47,0 L79,0 C79,0 66.1390625,21 63,21 C61.256322,21 56.5129103,14.5203439 52.6403537,8.7596357 C49.4553653,13.5022219 45.4504156,19 44,19 C41.4495117,19 31,2 31,2 L48.2466241,2 L48.2466241,2 Z" id="Combined-Shape" stroke-width="2" fill="#C3A68B"></path>
                        <path d="M19.3993177,19.8009076 L14.5,14.5" id="Path-32"></path>
                        <path d="M43.5,15.5 L42.5,12.5" id="Path-32"></path>
                        <path d="M63.5,17.5 L67.5,12.5" id="Path-32"></path>
                        <path d="M33.5,21.5 L25.5,10.5" id="Path-32"></path>
                        <path d="M42.5,29.5 L49.5,21.5" id="Path-32"></path>
                        <path d="M60.5,26.5 L61.5,25.5" id="Path-32"></path>
                        <path d="M38.5,23.5 L36.5,20.5" id="Path-32"></path>
                    </g>
                    <path d="M6.59803221,89.8487741 C4.31869726,87.1476108 2.44232181,84.8146824 1.55410369,83.6994436 C1.57004814,83.7056322 1.58607265,83.7116565 1.60217511,83.7175144 L1.60217511,83.7175144 C3.34033919,84.9936364 7.27110248,87.2811687 13.1147971,87.2811687 C16.4262675,87.2811687 19.1234583,86.5465974 21.1554782,85.6777637 C23.9255236,86.4058621 27.249477,86.8425954 31,86.8425954 C31.9030915,86.8425954 32.7760558,86.800246 33.6184438,86.7217711 C36.0780601,88.1172839 39.2721218,89 43,89 C47.5750131,89 51.1706634,86.7765172 53.6933187,84.4264658 C56.9000552,85.7830475 62.1414836,87.3558385 69.2072368,87.3558385 C76.2276565,87.3558385 81.5009839,86.275191 84.7130791,84.9246296 C85.1608951,84.7363404 85.5679267,84.536491 85.9342553,84.335448 C85.0009672,85.496745 83.514549,87.3286951 81.7163152,89.4826489 C78.2820832,90.3584277 74.0039334,90.8558385 69.2072368,90.8558385 C62.9380247,90.8558385 57.5518824,89.6874989 53.1089005,87.8079343 L54.7157663,87.5240089 C51.3740547,90.6370756 47.4577383,92.5 43,92.5 C39.1773308,92.5 35.6954338,91.6248076 32.8782304,90.0264106 L33.6184438,88.7217711 L33.7575778,90.2153044 C32.8523614,90.2996322 31.9330833,90.3425954 31,90.3425954 C27.2578168,90.3425954 23.7874822,89.9205294 20.77416,89.1284865 L21.7451917,89.0569802 C19.1812101,90.1532654 16.2973721,90.7811687 13.1147971,90.7811687 C10.729426,90.7811687 8.55439625,90.4411518 6.59803221,89.8487741 L6.59803221,89.8487741 Z" id="Grass-Shadow" stroke="#A39180" fill="#A39180" opacity="0.597831157"></path>
                    <path d="M1.60217511,83.7175144 C0.670664487,83.3786402 -2.84217094e-14,82.4829095 -2.84217094e-14,81.4312087 C-2.84217094e-14,80.079128 1.08646732,79 2.42669269,79 L86.5733073,79 C87.9068204,79 89,80.0884892 89,81.4312087 C89,82.7290418 87.9989653,83.7753855 86.7333439,83.8572582 C86.1914247,84.2102552 85.5181611,84.5861239 84.7130791,84.9246296 C81.5009839,86.275191 76.2276565,87.3558385 69.2072368,87.3558385 C62.1414836,87.3558385 56.9000552,85.7830475 53.6933187,84.4264658 C51.1706634,86.7765172 47.5750131,89 43,89 C39.2721218,89 36.0780601,88.1172839 33.6184438,86.7217711 C32.7760558,86.800246 31.9030915,86.8425954 31,86.8425954 C27.249477,86.8425954 23.9255236,86.4058621 21.1554782,85.6777637 C19.1234583,86.5465974 16.4262675,87.2811687 13.1147971,87.2811687 C7.27110248,87.2811687 3.34033919,84.9936364 1.60217511,83.7175144 L1.60217511,83.7175144 Z" id="Grass" stroke="#84AA58" stroke-width="2" fill="#B8E986"></path>
                    <g id="Tufts" transform="translate(8.000000, 75.500000) scale(-1, 1) translate(-8.000000, -75.500000) translate(5.000000, 72.000000)" stroke="#84AA58" stroke-width="2">
                        <polyline id="Path-19" transform="translate(3.488717, 3.752453) rotate(20.000000) translate(-3.488717, -3.752453) " points="4.94963691 2.76408956 3.3958568 6.17176184 2.02779688 1.33314425"></polyline>
                        <path d="M1.36328125,5.24902344 L0,4" id="Path-21"></path>
                    </g>
                    <g id="Tower" transform="translate(43.000000, 0.000000)">
                        <rect id="Rectangle-26" stroke="#ADAFAB" stroke-width="2" fill="#CBD0C6" x="8" y="18" width="22" height="61" rx="8"></rect>
                        <rect id="Rectangle-27" stroke="#ADAFAB" stroke-width="2" fill="#CBD0C6" x="0" y="75" width="38" height="4" rx="2"></rect>
                        <rect id="Rectangle-27" stroke="#ADAFAB" stroke-width="2" fill="#CBD0C6" x="4.47058824" y="71" width="30.1764706" height="4" rx="2"></rect>
                        <path d="M16.0354444,62.2727273 L16,62.2727273 L16,71 L23,71 L23,62.2727273 L22.9645556,62.2727273 C22.7219407,60.422385 21.263236,59 19.5,59 C17.736764,59 16.2780593,60.422385 16.0354444,62.2727273 L16.0354444,62.2727273 Z" id="Door" stroke="#B99595" stroke-width="2" fill="#D8AEAE"></path>
                        <path d="M30,34.5 L30,26.0060244 C30,21.5880925 26.4161563,18 21.995261,18 L16.004739,18 C11.5836436,18 8,21.5844192 8,26.0060244 L8,34.5 L30,34.5 L30,34.5 Z" id="Shadow" stroke="#ADB1A8" fill="#ADB1A8" opacity="0.597831157"></path>
                        <polygon id="Triangle-82" stroke="#B99595" stroke-width="2" fill="#D8AEAE" points="19 0 38 31 0 31"></polygon>
                        <g id="Window" transform="translate(16.000000, 39.000000)" stroke="#9FB5B0">
                            <rect id="Rectangle-29" stroke-width="2" fill="#B8CEC9" x="0" y="0" width="7" height="7"></rect>
                            <path d="M3.5,6.61111111 L3.5,0.388888889" id="Line"></path>
                            <path d="M0.388888889,3.5 L6.61111111,3.5" id="Line"></path>
                        </g>
                        <g id="Roof-Detail" transform="translate(3.000000, 4.000000)">
                            <path d="M11.9861401,42.5 L21.011898,42.5" id="Line" stroke="#9FB5B0" stroke-width="2" fill="#B8CEC9"></path>
                            <path d="M1.5,21.5 L31.5,21.5" id="Line" stroke="#B99595" fill="#D8AEAE"></path>
                            <path d="M0.5,23 L31.5,23" id="Line" stroke="#B99595" stroke-width="2" fill="#D8AEAE" opacity="0.6"></path>
                            <path d="M3,18 L29,18" id="Line" stroke="#B99595" stroke-width="2" fill="#D8AEAE" opacity="0.6"></path>
                            <path d="M6,13 L26,13" id="Line" stroke="#B99595" stroke-width="2" fill="#D8AEAE" opacity="0.6"></path>
                            <path d="M9,8 L23,8" id="Line" stroke="#B99595" stroke-width="2" fill="#D8AEAE" opacity="0.6"></path>
                            <path d="M12,3 L20,3" id="Line" stroke="#B99595" stroke-width="2" fill="#D8AEAE" opacity="0.6"></path>
                            <path d="M3.5,16.5 L28.5,16.5" id="Line" stroke="#B99595" fill="#D8AEAE"></path>
                            <path d="M6.5,11.5 L25.5,11.5" id="Line" stroke="#B99595" fill="#D8AEAE"></path>
                            <path d="M9.5,6.5 L22.5,6.5" id="Line" stroke="#B99595" fill="#D8AEAE"></path>
                            <path d="M12.5,1.5 L19.5,1.5" id="Line" stroke="#B99595" fill="#D8AEAE"></path>
                        </g>
                    </g>
                    <g id="Trees" transform="translate(16.000000, 33.000000)" stroke-width="2">
                        <g id="Tree" transform="translate(14.000000, 0.000000)">
                            <rect id="Rectangle-5" stroke="#7F7368" fill="#9C8A7B" x="9.52380952" y="33.8947368" width="4.76190476" height="12.1052632"></rect>
                            <path d="M16.8859649,19.3684211 L21.4285714,19.3684211 L12.5,0 L3.57142857,19.3684211 L8.11403509,19.3684211 L0.595238095,33.8947368 L24.4047619,33.8947368 L16.8859649,19.3684211 Z" id="Combined-Shape" stroke="#6F7C60" fill="#88947B"></path>
                        </g>
                        <g id="Tree" transform="translate(0.000000, 9.000000)">
                            <rect id="Rectangle-5" stroke="#7F7368" fill="#9C8A7B" x="7.61904762" y="27.2631579" width="3.80952381" height="9.73684211"></rect>
                            <path d="M13.5087719,15.5789474 L17.1428571,15.5789474 L10,0 L2.85714286,15.5789474 L6.49122807,15.5789474 L0.476190476,27.2631579 L19.5238095,27.2631579 L13.5087719,15.5789474 Z" id="Combined-Shape" stroke="#6F7C60" fill="#88947B"></path>
                        </g>
                    </g>
                </g>
            </g>
        </g>
    </g>
</svg>