<?xml version="1.0" encoding="UTF-8" standalone="no"?>
<svg width="154px" height="119px" viewBox="0 0 154 119" version="1.1" xmlns="http://www.w3.org/2000/svg" xmlns:xlink="http://www.w3.org/1999/xlink">
    <!-- Generator: Sketch 3.8.3 (29802) - http://www.bohemiancoding.com/sketch -->
    <title>Island Group 1</title>
    <desc>Created with Sketch.</desc>
    <defs></defs>
    <g id="Page-1" stroke="none" stroke-width="1" fill="none" fill-rule="evenodd" stroke-linecap="round" stroke-linejoin="round">
        <g id="Desktop-Landscape" transform="translate(-95.000000, -83.000000)">
            <g id="Island-Group-1" transform="translate(96.000000, 84.000000)">
                <g id="Main-Island-Land">
                    <g id="Rocks" transform="translate(4.000000, 66.000000)">
                        <path d="M69.5,50.1191494 C76.0724121,50.1191494 103,5 103,5 L36,5 C36,5 62.9275879,50.1191494 69.5,50.1191494 Z" id="Triangle-1" stroke="#A39180" stroke-width="2" fill="#C3A68B"></path>
                        <path d="M32,45.5607415 C34.7466797,45.5607415 46,0.441592148 46,0.441592148 L18,0.441592148 C18,0.441592148 29.2533203,45.5607415 32,45.5607415 Z" id="Triangle-1" stroke="#A39180" stroke-width="2" fill="#C3A68B"></path>
                        <path d="M86.5,38.4707961 C90.9143066,38.4707961 109,0 109,0 L64,0 C64,0 82.0856934,38.4707961 86.5,38.4707961 Z" id="Triangle-1" stroke="#A39180" stroke-width="2" fill="#C3A68B"></path>
                        <path d="M20,30.4976663 C23.9238281,30.4976663 40,0 40,0 L0,0 C0,0 16.0761719,30.4976663 20,30.4976663 Z" id="Triangle-1" stroke="#A39180" stroke-width="2" fill="#C3A68B"></path>
                        <path d="M75.6345084,3 C76.501839,1.10902782 77,0 77,0 L20,0 C20,0 20.498161,1.10902782 21.3654916,3 L11,3 C11,3 25.870459,27 29.5,27 C30.0906556,27 30.9790031,26.3644109 32.05251,25.3000986 C38.5046805,38.1163829 45.6896613,51 48.5,51 C51.0961178,51 57.4253733,40.005657 63.4615089,28.2263384 C66.2781295,31.0866408 68.6622302,33 70,33 C75.297168,33 97,3 97,3 L75.6345084,3 L75.6345084,3 Z" id="Triangle-1" stroke="#A39180" stroke-width="2" fill="#C3A68B"></path>
                        <g id="Front-Ledge" transform="translate(47.000000, 11.000000)">
                            <path d="M11,12.0011668 C12.7657227,12.0011668 20,4.24883315 20,4.24883315 L2,4.24883315 C2,4.24883315 9.23427734,12.0011668 11,12.0011668 Z" id="Triangle-1" stroke="#A39180" stroke-width="2" fill="#C3A68B"></path>
                            <path d="M16.3449454,7.94985344 C18.298783,6.0718766 20,4.24883315 20,4.24883315 L9.92827087,4.24883315 C9.48460122,4.48972992 9.01098253,4.62169231 8.51164984,4.62169231 C8.01437161,4.62169231 7.54329734,4.4917397 7.09729204,4.24883315 L2.21340788,4.24883315 C2.17252848,4.28107937 2.13348943,4.31538378 2.0963932,4.35153392 C2.38508916,4.65817292 3.29393892,5.61684774 4.43710305,6.75661518 L5.30334163,5.79518561 L6.2169855,6.98483046 C5.91446215,7.21716754 5.59511975,7.41295645 5.25893364,7.56660567 C5.33311676,7.63883547 5.40782869,7.71132948 5.48298489,7.78398453 C6.38929102,8.31732757 7.40087134,8.62169231 8.51164984,8.62169231 C10.5384063,8.62169231 12.1854875,7.63736379 13.4612781,6.15357701 L12.3238995,5.17563533 L12.3238995,6.67563533 L12.8561559,6.67563533 L12.8561559,5.17563533 L11.966637,6.38342515 C13.2301523,7.31398495 14.6966382,7.89001095 16.3449454,7.94985344 L16.3449454,7.94985344 Z" id="Combined-Shape" stroke="#A39180" fill="#A39180" opacity="0.597831157"></path>
                            <path d="M0.0557745674,2.57157411 L0,2.57157411 C0,2.57157411 0.223992766,3.39689662 0.674479167,4.0132998 C1.25979673,4.81419325 2.22071819,5.45502564 3.5,5.45502564 C4.20201059,5.45502564 4.80519559,5.17776035 5.30334163,4.79518561 C6.05859883,5.47566491 7.1374811,6.12169231 8.51164984,6.12169231 C10.3082456,6.12169231 11.6001054,5.01743184 12.3238995,4.17563533 L12.8561559,4.17563533 C13.7562127,4.83851354 15.0249703,5.45502564 16.6308249,5.45502564 C18.7028021,5.45502564 20.314075,4.84133773 21.1957809,4.0132998 C21.7919256,3.4534414 22,2.57157411 22,2.57157411 L21.9438519,2.57157411 C21.9805769,2.4163141 22,2.25434263 22,2.08781767 C22,0.926708817 21.0644808,0 19.9104594,0 L2.08954057,0 C0.931260627,0 0,0.934747808 0,2.08781767 C0,2.25458927 0.0192997221,2.41652522 0.0557745674,2.57157411 L0.0557745674,2.57157411 Z" id="Grass" stroke="#84AA58" stroke-width="2" fill="#B8E986"></path>
                        </g>
                        <g id="Shadows" transform="translate(0.000000, 1.000000)" stroke="#A39180" fill="#A39180" opacity="0.597831157">
                            <path d="M59.6083087,39.6890568 C59.0674962,38.9879409 58.517683,38.2608742 57.961343,37.5125778 C59.7455311,34.3512612 61.6172024,30.8254414 63.4615089,27.2263384 C66.2781295,30.0866408 68.6622302,32 70,32 C73.7573674,32 85.7689093,16.9061132 92.4345427,8.13101838 C93.8386756,7.89089708 95.1790684,7.60527704 96.451257,7.27957067 L96.451257,7.27957067 C95.9122273,8.00614163 95.3348984,8.77893812 94.7245192,9.58968924 C92.0675653,13.1188533 89.3272402,16.6483833 86.6510569,19.9453374 C85.7702523,21.0304546 84.9090643,22.0744421 84.0706064,23.0723447 C77.2718756,31.16395 72.7394071,35.5 70,35.5 C68.1590244,35.5 65.7740819,33.7126091 62.392719,30.2788061 L64.796444,29.9104059 C62.9084421,33.594779 61.1840355,36.8564153 59.6083052,39.6890633 L59.6083087,39.6890568 L59.6083087,39.6890568 Z M36.7170443,33.2915148 C36.3596282,34.4360018 36.0090768,35.5282552 35.669187,36.5509346 C34.1423534,33.7054622 32.493063,30.5109964 30.7127154,26.9745986 L33.1085986,27.3653108 C31.7010071,28.7608461 30.6120182,29.5 29.5,29.5 C28.3844749,29.5 27.0413637,28.6077238 25.3453904,26.8325392 C25.1476038,26.1506875 24.9497724,25.4626574 24.752477,24.7711016 C24.5601146,25.0377953 24.3705572,25.2961089 24.184166,25.5452619 C22.8206877,23.9584399 21.2519944,21.8961441 19.4284047,19.3620895 C18.8528482,18.5622978 18.26178,17.7256994 17.6573136,16.8562363 C15.8213496,14.2153893 13.9418388,11.3889372 12.1195727,8.56287545 C11.9629436,8.31996716 11.809487,8.08131247 11.6593912,7.84725777 C12.7898337,8.14151713 13.9774798,8.3861841 15.2208543,8.57329212 C19.9054537,15.6787795 27.1198101,26 29.5,26 C30.0906556,26 30.9790031,25.3644109 32.05251,24.3000986 C33.588791,27.351694 35.1666172,30.4071068 36.7170443,33.2915148 L36.7170443,33.2915148 L36.7170443,33.2915148 Z"></path>
                            <path d="M4.85537266,8.87314099 C2.04553008,3.8805192 0,0 0,0 L30,0 L70.5,0 L109,0 C109,0 107.55649,3.07054654 105.385561,7.47668574 C99.6128257,10.6355461 91.2314537,12.5 81.6936937,12.5 C72.344462,12.5 64.2256528,9.64885136 57.4206912,4.98066816 L59.2182614,4.90534183 C55.449745,7.98425052 50.9512658,9.86507693 45.7723192,9.86507693 C42.3825986,9.86507693 39.2421378,9.04519741 36.3719006,7.56820313 L37.8658847,7.49844393 C32.8937782,10.6753864 27.2850596,12.5 21.0810811,12.5 C14.8799041,12.5 9.33077882,11.1835123 4.85537266,8.87314099 L4.85537266,8.87314099 Z" id="Shadow"></path>
                        </g>
                        <g id="Rock-Lines" transform="translate(13.000000, 14.000000)" stroke="#A39180">
                            <path d="M36,32.9311523 L42.3037109,23" id="Path-4"></path>
                            <path d="M18.5,23.5 L16.3897151,16.4157002" id="Path-4"></path>
                            <path d="M76.5,9.5 L80.5,3.5" id="Path-4"></path>
                            <path d="M70.3641869,13.6061088 L69.6358131,12.3938912" id="Path-4"></path>
                            <path d="M76.5,13.5 L78.5,10.5" id="Path-4"></path>
                            <path d="M57,31.9311523 L60.5,28.5" id="Path-4"></path>
                            <path d="M59,9.93115234 L63.5,4.5" id="Path-4"></path>
                            <path d="M21.5348089,6.48025956 L18.9609014,2.02212094" id="Path-4"></path>
                            <path d="M37.5,8.5 L38,8" id="Path-4"></path>
                            <path d="M37.5,11.5 L40,9" id="Path-4"></path>
                            <path d="M21.5,6.50000009 L22.5,5.5" id="Path-4"></path>
                            <path d="M3.5,5.5 L0,0" id="Path-4"></path>
                        </g>
                    </g>
                    <path d="M0.169350417,62.7147223 L0,62.7147223 C0,62.7147223 0.183541018,63.1495354 0.551316001,63.8349099 C0.718100886,64.2045868 0.919711456,64.5552797 1.15196264,64.8827583 C1.95630682,66.2012436 3.1826317,67.9051437 4.83333333,69.3573608 C9.02773255,73.0474148 15.913718,76 25.0810811,76 C31.6457223,76 37.0044231,73.824637 41.0582432,71.2344363 C43.4389865,72.4595421 46.3546554,73.3650769 49.7723192,73.3650769 C55.2951654,73.3650769 59.5071208,71.000397 62.2692216,68.743738 C67.3898167,72.2564508 75.2879373,76 85.6936937,76 C97.3889678,76 106.483797,73.1724809 111.460586,69.3573608 C114.825524,66.777857 116,62.7147223 116,62.7147223 L115.830724,62.7147223 C115.941393,62.2489423 116,61.7630279 116,61.263453 C116,57.8112822 113.19855,55 109.742786,55 L6.25721372,55 C2.80995462,55 0,57.8042434 0,61.263453 C0,61.7628087 0.0586163049,62.2487548 0.169350417,62.7147223 L0.169350417,62.7147223 Z" id="Grass" stroke="#84AA58" stroke-width="2" fill="#B8E986"></path>
                    <g id="Grass-Tufts" transform="translate(17.000000, 47.000000)" stroke="#84AA58" stroke-width="2">
                        <polyline id="Path-19" points="0.921875 2.94628906 3.48730469 7.75097656 5.74609375 0.928710938"></polyline>
                        <polyline id="Path-19" transform="translate(78.468227, 5.269795) rotate(20.000000) translate(-78.468227, -5.269795) " points="81 4.20965885 78.3073009 7.86478987 75.9364548 2.67480099"></polyline>
                        <path d="M77.6982422,7.14160156 L74.3349609,3.89257812" id="Path-21"></path>
                    </g>
                    <g id="Trees" transform="translate(30.000000, 0.000000)" stroke-width="2">
                        <g id="Tree" transform="translate(11.000000, 4.000000)">
                            <rect id="Rectangle-5" stroke="#7F7368" fill="#9C8A7B" x="10.6666667" y="37.5789474" width="5.33333333" height="13.4210526"></rect>
                            <path d="M18.9122807,21.4736842 L24,21.4736842 L14,0 L4,21.4736842 L9.0877193,21.4736842 L0.666666667,37.5789474 L27.3333333,37.5789474 L18.9122807,21.4736842 Z" id="Combined-Shape" stroke="#6F7C60" fill="#88947B"></path>
                        </g>
                        <g id="Tree" transform="translate(23.000000, 0.000000)">
                            <rect id="Rectangle-5" stroke="#7F7368" fill="#9C8A7B" x="11.4285714" y="40.5263158" width="5.71428571" height="14.4736842"></rect>
                            <path d="M20.2631579,23.1578947 L25.7142857,23.1578947 L15,0 L4.28571429,23.1578947 L9.73684211,23.1578947 L0.714285714,40.5263158 L29.2857143,40.5263158 L20.2631579,23.1578947 Z" id="Combined-Shape" stroke="#6F7C60" fill="#88947B"></path>
                        </g>
                        <g id="Tree" transform="translate(0.000000, 17.000000)">
                            <rect id="Rectangle-5" stroke="#7F7368" fill="#9C8A7B" x="8" y="28" width="4" height="10"></rect>
                            <path d="M14.1842105,16 L18,16 L10.5,0 L3,16 L6.81578947,16 L0.5,28 L20.5,28 L14.1842105,16 Z" id="Combined-Shape" stroke="#6F7C60" fill="#88947B"></path>
                        </g>
                        <g id="Tree" transform="translate(45.000000, 12.000000)">
                            <rect id="Rectangle-5" stroke="#7F7368" fill="#9C8A7B" x="8.76190476" y="31.6842105" width="4.38095238" height="11.3157895"></rect>
                            <path d="M15.5350877,18.1052632 L19.7142857,18.1052632 L11.5,0 L3.28571429,18.1052632 L7.46491228,18.1052632 L0.547619048,31.6842105 L22.452381,31.6842105 L15.5350877,18.1052632 Z" id="Combined-Shape" stroke="#6F7C60" fill="#88947B"></path>
                        </g>
                        <g id="Tree" transform="translate(36.000000, 20.000000)">
                            <rect id="Rectangle-5" stroke="#7F7368" fill="#9C8A7B" x="7.23809524" y="25.7894737" width="3.61904762" height="9.21052632"></rect>
                            <path d="M12.8333333,14.7368421 L16.2857143,14.7368421 L9.5,0 L2.71428571,14.7368421 L6.16666667,14.7368421 L0.452380952,25.7894737 L18.547619,25.7894737 L12.8333333,14.7368421 Z" id="Combined-Shape" stroke="#6F7C60" fill="#88947B"></path>
                        </g>
                    </g>
                </g>
                <g id="Little-Island" transform="translate(117.000000, 63.000000)">
                    <path d="M21.795159,45.4419587 C19.1362861,49.7899181 16.2649302,54 15.1153846,54 C12.7384503,54 3,36 3,36 L22.0384615,36 L33,36 C33,36 26.5076998,49.5 24.9230769,49.5 C24.3467708,49.5 23.1213364,47.7143829 21.795159,45.4419587 L21.795159,45.4419587 Z" id="Rocks" stroke="#A39180" stroke-width="2" fill="#C3A68B"></path>
                    <g id="Rock-Lines" transform="translate(10.000000, 43.000000)" stroke="#A39180">
                        <path d="M0,0 L1.38037109,2.32421875" id="Path-1"></path>
                        <path d="M8.5,2.5 L5.5,7.5" id="Path-1"></path>
                    </g>
                    <path d="M5.33793466,40.1865766 C3.95410962,37.7635222 3,36 3,36 L5.05265512,36 C6.12413627,36.3540725 7.37290252,36.5537507 8.75,36.5537507 C9.86296027,36.5537507 10.9091266,36.3598724 11.8912612,36 L14.9637419,36 C17.2693619,38.1847055 19.9785544,39.5 23.0681818,39.5 C27.0206985,39.5 30.317647,38.2480461 32.1161411,36.3208059 C32.2075284,36.2228766 32.2964072,36.1156288 32.3825325,36 L33,36 C33,36 31.5136732,39.0906475 29.7897756,42.3143569 C27.8209478,43.079715 25.5311845,43.5 23.0681818,43.5 C18.9898023,43.5 15.4995241,41.7405432 12.6294533,38.9160928 L13.6815825,37.8469697 L14.3709048,39.1791989 C12.6689272,40.0598364 10.7892561,40.5537507 8.75,40.5537507 C7.54360441,40.5537507 6.39867492,40.426452 5.33793466,40.1865766 L5.33793466,40.1865766 Z" id="Combined-Shape" stroke="#A39180" stroke-width="3" fill="#A39180" opacity="0.597831157"></path>
                    <path d="M0.0584402219,33.6884067 L0,33.6884067 C0,33.6884067 0.049628572,33.7991423 0.149050672,33.9793026 C0.250654571,34.2393491 0.400657641,34.4745876 0.588001585,34.674365 C0.859617613,35.0547526 1.22554044,35.4893742 1.68619792,35.8710786 C3.14949182,37.0835753 5.55179548,38.0537507 8.75,38.0537507 C10.7088398,38.0537507 12.3599,37.5308348 13.6815825,36.8469697 C15.6911396,38.8245845 18.8584356,41 23.0681818,41 C27.6726982,41 31.2534002,39.4438662 33.2127988,37.3442031 C34.5376001,35.9245653 35,33.6884067 35,33.6884067 L34.9413365,33.6884067 C34.9797141,33.5260928 35,33.3567626 35,33.182672 C35,31.9688113 34.0197692,31 32.8105932,31 L2.18940675,31 C0.972630009,31 0,31.9772156 0,33.182672 C0,33.3570205 0.0202221209,33.5263135 0.0584402219,33.6884067 L0.0584402219,33.6884067 Z" id="Grass" stroke="#84AA58" stroke-width="2" fill="#B8E986"></path>
                    <polyline id="Grass-Tufts" stroke="#84AA58" stroke-width="2" points="26 28.1303751 27.4373163 30.8222656 28.7028331 27"></polyline>
                    <g id="Tree" transform="translate(6.000000, 0.000000)" stroke-width="2">
                        <rect id="Rectangle-5" stroke="#7F7368" fill="#9C8A7B" x="6.47619048" y="22.8421053" width="3.23809524" height="8.15789474"></rect>
                        <path d="M11.4824561,13.0526316 L14.5714286,13.0526316 L8.5,0 L2.42857143,13.0526316 L5.51754386,13.0526316 L0.404761905,22.8421053 L16.5952381,22.8421053 L11.4824561,13.0526316 Z" id="Combined-Shape" stroke="#6F7C60" fill="#88947B"></path>
                    </g>
                </g>
            </g>
        </g>
    </g>
</svg>