<?xml version="1.0" encoding="UTF-8" standalone="no"?>
<svg width="960px" height="540px" viewBox="0 0 960 540" version="1.1" xmlns="http://www.w3.org/2000/svg" xmlns:xlink="http://www.w3.org/1999/xlink" style="background: #3E494D;">
    <!-- Generator: Sketch 3.8.3 (29802) - http://www.bohemiancoding.com/sketch -->
    <title>Desktop Landscape</title>
    <desc>Created with Sketch.</desc>
    <defs></defs>
    <g id="Page-1" stroke="none" stroke-width="1" fill="none" fill-rule="evenodd">
        <g id="Desktop-Landscape">
            <g id="Island-Group-1" transform="translate(96.000000, 84.000000)" stroke-linecap="round" stroke-linejoin="round">
                <g id="Main-Island-Land">
                    <g id="Rocks" transform="translate(4.000000, 66.000000)">
                        <path d="M69.5,50.1191494 C76.0724121,50.1191494 103,5 103,5 L36,5 C36,5 62.9275879,50.1191494 69.5,50.1191494 Z" id="Triangle-1" stroke="#A39180" stroke-width="2" fill="#C3A68B"></path>
                        <path d="M32,45.5607415 C34.7466797,45.5607415 46,0.441592148 46,0.441592148 L18,0.441592148 C18,0.441592148 29.2533203,45.5607415 32,45.5607415 Z" id="Triangle-1" stroke="#A39180" stroke-width="2" fill="#C3A68B"></path>
                        <path d="M86.5,38.4707961 C90.9143066,38.4707961 109,0 109,0 L64,0 C64,0 82.0856934,38.4707961 86.5,38.4707961 Z" id="Triangle-1" stroke="#A39180" stroke-width="2" fill="#C3A68B"></path>
                        <path d="M20,30.4976663 C23.9238281,30.4976663 40,0 40,0 L0,0 C0,0 16.0761719,30.4976663 20,30.4976663 Z" id="Triangle-1" stroke="#A39180" stroke-width="2" fill="#C3A68B"></path>
                        <path d="M75.6345084,3 C76.501839,1.10902782 77,0 77,0 L20,0 C20,0 20.498161,1.10902782 21.3654916,3 L11,3 C11,3 25.870459,27 29.5,27 C30.0906556,27 30.9790031,26.3644109 32.05251,25.3000986 C38.5046805,38.1163829 45.6896613,51 48.5,51 C51.0961178,51 57.4253733,40.005657 63.4615089,28.2263384 C66.2781295,31.0866408 68.6622302,33 70,33 C75.297168,33 97,3 97,3 L75.6345084,3 L75.6345084,3 Z" id="Triangle-1" stroke="#A39180" stroke-width="2" fill="#C3A68B"></path>
                        <g id="Front-Ledge" transform="translate(47.000000, 11.000000)">
                            <path d="M11,12.0011668 C12.7657227,12.0011668 20,4.24883315 20,4.24883315 L2,4.24883315 C2,4.24883315 9.23427734,12.0011668 11,12.0011668 Z" id="Triangle-1" stroke="#A39180" stroke-width="2" fill="#C3A68B"></path>
                            <path d="M16.3449454,7.94985344 C18.298783,6.0718766 20,4.24883315 20,4.24883315 L9.92827087,4.24883315 C9.48460122,4.48972992 9.01098253,4.62169231 8.51164984,4.62169231 C8.01437161,4.62169231 7.54329734,4.4917397 7.09729204,4.24883315 L2.21340788,4.24883315 C2.17252848,4.28107937 2.13348943,4.31538378 2.0963932,4.35153392 C2.38508916,4.65817292 3.29393892,5.61684774 4.43710305,6.75661518 L5.30334163,5.79518561 L6.2169855,6.98483046 C5.91446215,7.21716754 5.59511975,7.41295645 5.25893364,7.56660567 C5.33311676,7.63883547 5.40782869,7.71132948 5.48298489,7.78398453 C6.38929102,8.31732757 7.40087134,8.62169231 8.51164984,8.62169231 C10.5384063,8.62169231 12.1854875,7.63736379 13.4612781,6.15357701 L12.3238995,5.17563533 L12.3238995,6.67563533 L12.8561559,6.67563533 L12.8561559,5.17563533 L11.966637,6.38342515 C13.2301523,7.31398495 14.6966382,7.89001095 16.3449454,7.94985344 L16.3449454,7.94985344 Z" id="Combined-Shape" stroke="#A39180" fill="#A39180" opacity="0.597831157"></path>
                            <path d="M0.0557745674,2.57157411 L0,2.57157411 C0,2.57157411 0.223992766,3.39689662 0.674479167,4.0132998 C1.25979673,4.81419325 2.22071819,5.45502564 3.5,5.45502564 C4.20201059,5.45502564 4.80519559,5.17776035 5.30334163,4.79518561 C6.05859883,5.47566491 7.1374811,6.12169231 8.51164984,6.12169231 C10.3082456,6.12169231 11.6001054,5.01743184 12.3238995,4.17563533 L12.8561559,4.17563533 C13.7562127,4.83851354 15.0249703,5.45502564 16.6308249,5.45502564 C18.7028021,5.45502564 20.314075,4.84133773 21.1957809,4.0132998 C21.7919256,3.4534414 22,2.57157411 22,2.57157411 L21.9438519,2.57157411 C21.9805769,2.4163141 22,2.25434263 22,2.08781767 C22,0.926708817 21.0644808,0 19.9104594,0 L2.08954057,0 C0.931260627,0 0,0.934747808 0,2.08781767 C0,2.25458927 0.0192997221,2.41652522 0.0557745674,2.57157411 L0.0557745674,2.57157411 Z" id="Grass" stroke="#84AA58" stroke-width="2" fill="#B8E986"></path>
                        </g>
                        <g id="Shadows" transform="translate(0.000000, 1.000000)" stroke="#A39180" fill="#A39180" opacity="0.597831157">
                            <path d="M59.6083087,39.6890568 C59.0674962,38.9879409 58.517683,38.2608742 57.961343,37.5125778 C59.7455311,34.3512612 61.6172024,30.8254414 63.4615089,27.2263384 C66.2781295,30.0866408 68.6622302,32 70,32 C73.7573674,32 85.7689093,16.9061132 92.4345427,8.13101838 C93.8386756,7.89089708 95.1790684,7.60527704 96.451257,7.27957067 L96.451257,7.27957067 C95.9122273,8.00614163 95.3348984,8.77893812 94.7245192,9.58968924 C92.0675653,13.1188533 89.3272402,16.6483833 86.6510569,19.9453374 C85.7702523,21.0304546 84.9090643,22.0744421 84.0706064,23.0723447 C77.2718756,31.16395 72.7394071,35.5 70,35.5 C68.1590244,35.5 65.7740819,33.7126091 62.392719,30.2788061 L64.796444,29.9104059 C62.9084421,33.594779 61.1840355,36.8564153 59.6083052,39.6890633 L59.6083087,39.6890568 L59.6083087,39.6890568 Z M36.7170443,33.2915148 C36.3596282,34.4360018 36.0090768,35.5282552 35.669187,36.5509346 C34.1423534,33.7054622 32.493063,30.5109964 30.7127154,26.9745986 L33.1085986,27.3653108 C31.7010071,28.7608461 30.6120182,29.5 29.5,29.5 C28.3844749,29.5 27.0413637,28.6077238 25.3453904,26.8325392 C25.1476038,26.1506875 24.9497724,25.4626574 24.752477,24.7711016 C24.5601146,25.0377953 24.3705572,25.2961089 24.184166,25.5452619 C22.8206877,23.9584399 21.2519944,21.8961441 19.4284047,19.3620895 C18.8528482,18.5622978 18.26178,17.7256994 17.6573136,16.8562363 C15.8213496,14.2153893 13.9418388,11.3889372 12.1195727,8.56287545 C11.9629436,8.31996716 11.809487,8.08131247 11.6593912,7.84725777 C12.7898337,8.14151713 13.9774798,8.3861841 15.2208543,8.57329212 C19.9054537,15.6787795 27.1198101,26 29.5,26 C30.0906556,26 30.9790031,25.3644109 32.05251,24.3000986 C33.588791,27.351694 35.1666172,30.4071068 36.7170443,33.2915148 L36.7170443,33.2915148 L36.7170443,33.2915148 Z"></path>
                            <path d="M4.85537266,8.87314099 C2.04553008,3.8805192 0,0 0,0 L30,0 L70.5,0 L109,0 C109,0 107.55649,3.07054654 105.385561,7.47668574 C99.6128257,10.6355461 91.2314537,12.5 81.6936937,12.5 C72.344462,12.5 64.2256528,9.64885136 57.4206912,4.98066816 L59.2182614,4.90534183 C55.449745,7.98425052 50.9512658,9.86507693 45.7723192,9.86507693 C42.3825986,9.86507693 39.2421378,9.04519741 36.3719006,7.56820313 L37.8658847,7.49844393 C32.8937782,10.6753864 27.2850596,12.5 21.0810811,12.5 C14.8799041,12.5 9.33077882,11.1835123 4.85537266,8.87314099 L4.85537266,8.87314099 Z" id="Shadow"></path>
                        </g>
                        <g id="Rock-Lines" transform="translate(13.000000, 14.000000)" stroke="#A39180">
                            <path d="M36,32.9311523 L42.3037109,23" id="Path-4"></path>
                            <path d="M18.5,23.5 L16.3897151,16.4157002" id="Path-4"></path>
                            <path d="M76.5,9.5 L80.5,3.5" id="Path-4"></path>
                            <path d="M70.3641869,13.6061088 L69.6358131,12.3938912" id="Path-4"></path>
                            <path d="M76.5,13.5 L78.5,10.5" id="Path-4"></path>
                            <path d="M57,31.9311523 L60.5,28.5" id="Path-4"></path>
                            <path d="M59,9.93115234 L63.5,4.5" id="Path-4"></path>
                            <path d="M21.5348089,6.48025956 L18.9609014,2.02212094" id="Path-4"></path>
                            <path d="M37.5,8.5 L38,8" id="Path-4"></path>
                            <path d="M37.5,11.5 L40,9" id="Path-4"></path>
                            <path d="M21.5,6.50000009 L22.5,5.5" id="Path-4"></path>
                            <path d="M3.5,5.5 L0,0" id="Path-4"></path>
                        </g>
                    </g>
                    <path d="M0.169350417,62.7147223 L0,62.7147223 C0,62.7147223 0.183541018,63.1495354 0.551316001,63.8349099 C0.718100886,64.2045868 0.919711456,64.5552797 1.15196264,64.8827583 C1.95630682,66.2012436 3.1826317,67.9051437 4.83333333,69.3573608 C9.02773255,73.0474148 15.913718,76 25.0810811,76 C31.6457223,76 37.0044231,73.824637 41.0582432,71.2344363 C43.4389865,72.4595421 46.3546554,73.3650769 49.7723192,73.3650769 C55.2951654,73.3650769 59.5071208,71.000397 62.2692216,68.743738 C67.3898167,72.2564508 75.2879373,76 85.6936937,76 C97.3889678,76 106.483797,73.1724809 111.460586,69.3573608 C114.825524,66.777857 116,62.7147223 116,62.7147223 L115.830724,62.7147223 C115.941393,62.2489423 116,61.7630279 116,61.263453 C116,57.8112822 113.19855,55 109.742786,55 L6.25721372,55 C2.80995462,55 0,57.8042434 0,61.263453 C0,61.7628087 0.0586163049,62.2487548 0.169350417,62.7147223 L0.169350417,62.7147223 Z" id="Grass" stroke="#84AA58" stroke-width="2" fill="#B8E986"></path>
                    <g id="Grass-Tufts" transform="translate(17.000000, 47.000000)" stroke="#84AA58" stroke-width="2">
                        <polyline id="Path-19" points="0.921875 2.94628906 3.48730469 7.75097656 5.74609375 0.928710938"></polyline>
                        <polyline id="Path-19" transform="translate(78.468227, 5.269795) rotate(20.000000) translate(-78.468227, -5.269795) " points="81 4.20965885 78.3073009 7.86478987 75.9364548 2.67480099"></polyline>
                        <path d="M77.6982422,7.14160156 L74.3349609,3.89257812" id="Path-21"></path>
                    </g>
                    <g id="Trees" transform="translate(30.000000, 0.000000)" stroke-width="2">
                        <g id="Tree" transform="translate(11.000000, 4.000000)">
                            <rect id="Rectangle-5" stroke="#7F7368" fill="#9C8A7B" x="10.6666667" y="37.5789474" width="5.33333333" height="13.4210526"></rect>
                            <path d="M18.9122807,21.4736842 L24,21.4736842 L14,0 L4,21.4736842 L9.0877193,21.4736842 L0.666666667,37.5789474 L27.3333333,37.5789474 L18.9122807,21.4736842 Z" id="Combined-Shape" stroke="#6F7C60" fill="#88947B"></path>
                        </g>
                        <g id="Tree" transform="translate(23.000000, 0.000000)">
                            <rect id="Rectangle-5" stroke="#7F7368" fill="#9C8A7B" x="11.4285714" y="40.5263158" width="5.71428571" height="14.4736842"></rect>
                            <path d="M20.2631579,23.1578947 L25.7142857,23.1578947 L15,0 L4.28571429,23.1578947 L9.73684211,23.1578947 L0.714285714,40.5263158 L29.2857143,40.5263158 L20.2631579,23.1578947 Z" id="Combined-Shape" stroke="#6F7C60" fill="#88947B"></path>
                        </g>
                        <g id="Tree" transform="translate(0.000000, 17.000000)">
                            <rect id="Rectangle-5" stroke="#7F7368" fill="#9C8A7B" x="8" y="28" width="4" height="10"></rect>
                            <path d="M14.1842105,16 L18,16 L10.5,0 L3,16 L6.81578947,16 L0.5,28 L20.5,28 L14.1842105,16 Z" id="Combined-Shape" stroke="#6F7C60" fill="#88947B"></path>
                        </g>
                        <g id="Tree" transform="translate(45.000000, 12.000000)">
                            <rect id="Rectangle-5" stroke="#7F7368" fill="#9C8A7B" x="8.76190476" y="31.6842105" width="4.38095238" height="11.3157895"></rect>
                            <path d="M15.5350877,18.1052632 L19.7142857,18.1052632 L11.5,0 L3.28571429,18.1052632 L7.46491228,18.1052632 L0.547619048,31.6842105 L22.452381,31.6842105 L15.5350877,18.1052632 Z" id="Combined-Shape" stroke="#6F7C60" fill="#88947B"></path>
                        </g>
                        <g id="Tree" transform="translate(36.000000, 20.000000)">
                            <rect id="Rectangle-5" stroke="#7F7368" fill="#9C8A7B" x="7.23809524" y="25.7894737" width="3.61904762" height="9.21052632"></rect>
                            <path d="M12.8333333,14.7368421 L16.2857143,14.7368421 L9.5,0 L2.71428571,14.7368421 L6.16666667,14.7368421 L0.452380952,25.7894737 L18.547619,25.7894737 L12.8333333,14.7368421 Z" id="Combined-Shape" stroke="#6F7C60" fill="#88947B"></path>
                        </g>
                    </g>
                </g>
                <g id="Little-Island" transform="translate(117.000000, 63.000000)">
                    <path d="M21.795159,45.4419587 C19.1362861,49.7899181 16.2649302,54 15.1153846,54 C12.7384503,54 3,36 3,36 L22.0384615,36 L33,36 C33,36 26.5076998,49.5 24.9230769,49.5 C24.3467708,49.5 23.1213364,47.7143829 21.795159,45.4419587 L21.795159,45.4419587 Z" id="Rocks" stroke="#A39180" stroke-width="2" fill="#C3A68B"></path>
                    <g id="Rock-Lines" transform="translate(10.000000, 43.000000)" stroke="#A39180">
                        <path d="M0,0 L1.38037109,2.32421875" id="Path-1"></path>
                        <path d="M8.5,2.5 L5.5,7.5" id="Path-1"></path>
                    </g>
                    <path d="M5.33793466,40.1865766 C3.95410962,37.7635222 3,36 3,36 L5.05265512,36 C6.12413627,36.3540725 7.37290252,36.5537507 8.75,36.5537507 C9.86296027,36.5537507 10.9091266,36.3598724 11.8912612,36 L14.9637419,36 C17.2693619,38.1847055 19.9785544,39.5 23.0681818,39.5 C27.0206985,39.5 30.317647,38.2480461 32.1161411,36.3208059 C32.2075284,36.2228766 32.2964072,36.1156288 32.3825325,36 L33,36 C33,36 31.5136732,39.0906475 29.7897756,42.3143569 C27.8209478,43.079715 25.5311845,43.5 23.0681818,43.5 C18.9898023,43.5 15.4995241,41.7405432 12.6294533,38.9160928 L13.6815825,37.8469697 L14.3709048,39.1791989 C12.6689272,40.0598364 10.7892561,40.5537507 8.75,40.5537507 C7.54360441,40.5537507 6.39867492,40.426452 5.33793466,40.1865766 L5.33793466,40.1865766 Z" id="Combined-Shape" stroke="#A39180" stroke-width="3" fill="#A39180" opacity="0.597831157"></path>
                    <path d="M0.0584402219,33.6884067 L0,33.6884067 C0,33.6884067 0.049628572,33.7991423 0.149050672,33.9793026 C0.250654571,34.2393491 0.400657641,34.4745876 0.588001585,34.674365 C0.859617613,35.0547526 1.22554044,35.4893742 1.68619792,35.8710786 C3.14949182,37.0835753 5.55179548,38.0537507 8.75,38.0537507 C10.7088398,38.0537507 12.3599,37.5308348 13.6815825,36.8469697 C15.6911396,38.8245845 18.8584356,41 23.0681818,41 C27.6726982,41 31.2534002,39.4438662 33.2127988,37.3442031 C34.5376001,35.9245653 35,33.6884067 35,33.6884067 L34.9413365,33.6884067 C34.9797141,33.5260928 35,33.3567626 35,33.182672 C35,31.9688113 34.0197692,31 32.8105932,31 L2.18940675,31 C0.972630009,31 0,31.9772156 0,33.182672 C0,33.3570205 0.0202221209,33.5263135 0.0584402219,33.6884067 L0.0584402219,33.6884067 Z" id="Grass" stroke="#84AA58" stroke-width="2" fill="#B8E986"></path>
                    <polyline id="Grass-Tufts" stroke="#84AA58" stroke-width="2" points="26 28.1303751 27.4373163 30.8222656 28.7028331 27"></polyline>
                    <g id="Tree" transform="translate(6.000000, 0.000000)" stroke-width="2">
                        <rect id="Rectangle-5" stroke="#7F7368" fill="#9C8A7B" x="6.47619048" y="22.8421053" width="3.23809524" height="8.15789474"></rect>
                        <path d="M11.4824561,13.0526316 L14.5714286,13.0526316 L8.5,0 L2.42857143,13.0526316 L5.51754386,13.0526316 L0.404761905,22.8421053 L16.5952381,22.8421053 L11.4824561,13.0526316 Z" id="Combined-Shape" stroke="#6F7C60" fill="#88947B"></path>
                    </g>
                </g>
            </g>
            <g id="Island-Group-2" transform="translate(619.000000, 20.000000)">
                <g id="Small-Island-2" transform="translate(0.000000, 93.000000)" stroke-linecap="round" stroke-linejoin="round">
                    <g id="Rocks" transform="translate(3.000000, 40.000000)" stroke="#A39180">
                        <path d="M14.4857143,12 C16.1505385,12 22.9714286,1 22.9714286,1 L6,1 C6,1 12.8208901,12 14.4857143,12 Z" id="Back-Rock" stroke-width="2" fill="#C3A68B"></path>
                        <path d="M12.3409761,10.142658 C13.2166951,9.59114994 14.2694365,8.77909028 15.5300739,7.72256214 L15.5300739,7.72256214 C15.8397395,8.17963191 16.1487782,8.63012966 16.4556002,9.07112123 C16.6192949,9.30639777 16.7811888,9.5372513 16.9411408,9.76341831 C19.5314777,6.54758379 22.9714286,1 22.9714286,1 L6,1 C6,1 9.72463553,7.00669274 12.3409761,10.142658 L12.3409761,10.142658 Z" id="Shadow" fill="#A39180" opacity="0.597831157"></path>
                        <path d="M10.1714286,8 C12.1669754,8 20.3428571,0 20.3428571,0 L0,0 C0,0 8.1758817,8 10.1714286,8 Z" id="Rock-2" stroke-width="2" fill="#C3A68B"></path>
                        <path d="M23.0285714,13 C24.996091,13 33.0571429,0 33.0571429,0 L13,0 C13,0 21.0610519,13 23.0285714,13 Z" id="Rock-1" stroke-width="2" fill="#C3A68B"></path>
                        <path d="M31.8186467,2.95095412 C31.121962,4.03181133 30.19222,5.44922381 29.1908027,6.9067552 C27.4498905,7.34684572 25.511011,7.60005608 23.3815789,7.60005608 C20.4054624,7.60005608 17.7319705,7.08766364 15.3791263,6.20313677 L16.0603324,6.21131821 C14.1149405,6.88980397 11.9639393,7.27110871 9.61842105,7.27110871 C8.68347214,7.27110871 7.78382235,7.2275695 6.92751444,7.14409855 L6.92751444,7.14409855 C5.33602083,5.91639672 3.52855388,4.30616899 2.15898928,3.04215965 C3.91303468,3.75260936 6.43299451,4.27110871 9.61842105,4.27110871 C12.0735209,4.27110871 14.1211232,3.82857382 15.7310205,3.267097 C17.6124976,3.9744184 20.1812402,4.60005608 23.3815789,4.60005608 C27.0533263,4.60005608 29.8937058,3.77653151 31.8186467,2.95095412 L31.8186467,2.95095412 Z" id="Combined-Shape" fill="#A39180" opacity="0.597831157"></path>
                    </g>
                    <g id="Rock-Lines" transform="translate(11.000000, 44.000000)" stroke="#A39180">
                        <path d="M15.5,6.5 L16.5,3.5" id="Path-30"></path>
                        <path d="M6.5,5.5 L7.5,4.5" id="Path-30"></path>
                        <path d="M1.5,1.5 L0.5,0.5" id="Path-30"></path>
                    </g>
                    <path d="M36.8947692,40.8847793 C36.9940057,40.8326587 37.08849,40.7727111 37.177392,40.7057591 C37.5654386,40.4523119 37.7631579,40.2894737 37.7631579,40.2894737 L37.5920201,40.2894737 C37.8482298,39.9463448 38,39.5210002 38,39.0603464 C38,37.9145153 37.0755498,37 35.9351827,37 L4.06481727,37 C2.92606968,37 2,37.9224485 2,39.0603464 C2,39.8956315 2.49126041,40.6079935 3.19930634,40.9327713 C3.48259087,41.1602309 3.82857086,41.3992546 4.23745888,41.6158174 C5.97360759,42.5353487 8.8238596,43.2711087 12.6184211,43.2711087 C15.0735209,43.2711087 17.1211232,42.8285738 18.7310205,42.267097 C20.6124976,42.9744184 23.1812402,43.6000561 26.3815789,43.6000561 C31.7527085,43.6000561 35.344826,41.8378275 36.8947692,40.8847793 L36.8947692,40.8847793 Z" id="Grass" stroke="#84AA58" stroke-width="2" fill="#B8E986"></path>
                    <g id="Trees" stroke-width="2">
                        <g id="Tree">
                            <rect id="Rectangle-5" stroke="#7F7368" fill="#9C8A7B" x="7.61904762" y="27.2631579" width="3.80952381" height="9.73684211"></rect>
                            <path d="M13.5087719,15.5789474 L17.1428571,15.5789474 L10,0 L2.85714286,15.5789474 L6.49122807,15.5789474 L0.476190476,27.2631579 L19.5238095,27.2631579 L13.5087719,15.5789474 Z" id="Combined-Shape" stroke="#6F7C60" fill="#88947B"></path>
                        </g>
                        <g id="Tree" transform="translate(15.000000, 9.000000)">
                            <rect id="Rectangle-5" stroke="#7F7368" fill="#9C8A7B" x="4.95238095" y="20.6315789" width="2.47619048" height="7.36842105"></rect>
                            <path d="M8.78070175,11.7894737 L11.1428571,11.7894737 L6.5,0 L1.85714286,11.7894737 L4.21929825,11.7894737 L0.30952381,20.6315789 L12.6904762,20.6315789 L8.78070175,11.7894737 Z" id="Combined-Shape" stroke="#6F7C60" fill="#88947B"></path>
                        </g>
                    </g>
                    <g id="Tufts" transform="translate(30.000000, 32.000000)" stroke="#84AA58" stroke-width="2">
                        <polyline id="Path-19" transform="translate(5.233854, 2.311448) rotate(20.000000) translate(-5.233854, -2.311448) " points="6.68990682 1.54421742 5.14130361 4.18946903 3.77780181 0.433426801"></polyline>
                        <path d="M3.69824219,3.14160156 L1,2" id="Path-21"></path>
                    </g>
                </g>
                <g id="Big-Island" transform="translate(4.000000, 6.000000)">
                    <g id="Rocks" transform="translate(1.000000, 64.000000)" stroke="#A39180" stroke-linecap="round" stroke-linejoin="round">
                        <path d="M66,60 C71.297168,60 93,25 93,25 L39,25 C39,25 60.702832,60 66,60 Z" id="Back-Rock" stroke-width="2" fill="#C3A68B"></path>
                        <path d="M132.43717,4 C134.05287,1.50093331 135,0 135,0 L51,0 C51,0 51.6979268,1.10601673 52.9175749,3 L4,3 C4,3 37.7599609,40 46,40 C49.7026029,40 58.5579083,32.5293661 67.1876669,24.3018506 C77.0733009,38.4409538 88.6282923,53.5 93,53.5 C97.8101112,53.5 111.316453,35.2692104 121.727095,20.0920268 C124.598847,23.9608371 127.251953,27 128.5,27 C131.93335,27 146,4 146,4 L132.43717,4 L132.43717,4 Z" id="Combined-Rocks" stroke-width="2" fill="#C3A68B"></path>
                        <g id="Shadows" fill="#A39180" opacity="0.597831157">
                            <path d="M79.4702825,45.3611116 C80.0315198,44.5754523 80.5915938,43.7818851 81.1469292,42.986977 C76.8810416,37.8156102 72.1261152,31.3419371 67.6766345,25 L66.4528864,25 C59.554745,31.5315612 52.6100577,37.4590186 48.3576436,39.3634614 C48.9714783,40.2667822 49.5988531,41.1816297 50.2342935,42.0979476 C54.4723626,39.8002609 60.5093425,34.741362 68.2227233,27.3875109 L65.9583397,27.1613591 C71.0858629,34.4950899 75.5977909,40.6130532 79.4702825,45.3611116 L79.4702825,45.3611116 Z" id="Shadow"></path>
                            <path d="M119.999114,10.1187361 C119.97451,10.4569718 119.832615,10.7946801 119.549066,11.0721294 C119.512049,11.1083468 119.443314,11.17534 119.342795,11.2729027 C119.176103,11.4346928 118.982119,11.6221372 118.762755,11.8331041 C118.136871,12.4350301 117.432465,13.1054027 116.664806,13.827186 C114.470997,15.8898907 112.20829,17.9528643 109.997847,19.8805093 C109.270028,20.5152128 108.558324,21.12594 107.865281,21.7098122 C102.267432,26.4258639 98.4662251,29 96.25,29 C94.0337749,29 90.2325683,26.4258639 84.6347195,21.7098122 C83.9416761,21.12594 83.2299722,20.5152128 82.5021533,19.8805093 C80.2917096,17.9528643 78.0290025,15.8898907 75.8351942,13.827186 C75.0933232,13.1296498 74.4105276,12.4801283 73.8005872,11.8939974 C74.9503853,11.5925795 76.0412451,11.270153 77.0702651,10.9293365 C82.3797393,15.9112238 93.0187351,25.5 96.25,25.5 C100.09063,25.5 114.396401,11.9536264 117.77954,8.69754705 C118.461398,9.1860795 119.201609,9.66609472 119.999114,10.1187361 L119.999114,10.1187361 Z" id="Shadow"></path>
                            <path d="M32.1507336,31.0222224 C31.0483996,32.2403004 39.3506508,22.1549352 44.6953903,14.2853957 C45.6845296,14.3670693 46.6949457,14.4293246 47.7264558,14.4701581 C46.3863954,16.477009 45.0441515,18.4502414 43.7177366,20.3566818 C42.8376047,21.621685 41.9771078,22.8386932 41.1393662,24.001918 C38.5348033,27.6184182 36.2720262,30.5832102 34.3127782,32.868108 C33.604715,32.2766074 32.8828114,31.6597867 32.1507336,31.0222224 Z" id="Shadow"></path>
                        </g>
                        <path d="M96.25,25.5 C100.615259,25.5 118.5,8 118.5,8 L74,8 C74,8 91.8847412,25.5 96.25,25.5 Z" id="Rock-2" stroke-width="2" fill="#C3A68B"></path>
                        <path d="M27,35 C32.297168,35 54,0 54,0 L0,0 C0,0 21.702832,35 27,35 Z" id="Rock-1" stroke-width="2" fill="#C3A68B"></path>
                    </g>
                    <path d="M139.690883,79.2761815 C140.940343,77.450337 142.142475,75.632018 143.198375,74.0054184 C140.250279,75.7154181 136.498989,77.0641705 132,77.0641705 C124.907752,77.0641705 119.673583,73.7124309 116.514903,70.8774856 C112.745301,74.1699031 106.66158,77.9180966 98.5,77.9180966 C91.4676768,77.9180966 85.9318293,75.9813404 82.1225465,73.3503017 C75.5205002,76.3849293 64.8873725,78.526906 51.6075987,78.526906 C37.922524,78.526906 27.661177,74.7225668 21.2061028,71.3069085 C19.2907738,72.2824923 16.9518654,73 14.2151975,73 C10.5139164,73 7.51844076,72.0865384 5.32601695,70.7847425 C6.3120861,72.3021968 7.42363962,73.9944069 8.6139411,75.7755244 C10.328347,76.2467458 12.211596,76.5 14.2151975,76.5 C16.9789593,76.5 19.5425204,75.8376375 21.8869085,74.64351 L20.5045494,74.6327376 C29.147998,79.2063593 39.5514763,82.026906 51.6075987,82.026906 C64.3829193,82.026906 75.4843744,80.0524054 82.7490106,76.7132186 L81.2700806,76.5845228 C85.7087361,79.6502638 91.6644202,81.4180966 98.5,81.4180966 C105.917968,81.4180966 112.275382,78.5719219 117.501644,74.007239 L115.512993,73.9938081 C120.003773,78.0243261 125.520797,80.5641705 132,80.5641705 C134.726147,80.5641705 137.291608,80.1103314 139.690883,79.2761815 L139.690883,79.2761815 Z" id="Shadow" stroke="#A39180" stroke-linecap="round" stroke-linejoin="round" fill="#A39180" opacity="0.597831157"></path>
                    <path d="M150.764686,67 C151.540972,65.9568882 152,64.6638406 152,63.263453 C152,59.8112822 149.194688,57 145.734161,57 L6.26583915,57 C2.80089383,57 0,59.8042434 0,63.263453 C0,65.1725453 0.857927211,66.8856395 2.21014985,68.0356711 C2.5735235,68.5226107 3.0189391,69.035717 3.54667868,69.4999998 C5.75670358,71.4442857 9.38492269,73 14.2151975,73 C16.9518654,73 19.2907738,72.2824923 21.2061028,71.3069085 C27.661177,74.7225668 37.922524,78.526906 51.6075987,78.526906 C64.8873725,78.526906 75.5205002,76.3849293 82.1225465,73.3503017 C85.9318293,75.9813404 91.4676768,77.9180966 98.5,77.9180966 C106.66158,77.9180966 112.745301,74.1699031 116.514903,70.8774856 C119.673583,73.7124309 124.907752,77.0641705 132,77.0641705 C144.289601,77.0641705 151,67 151,67 L150.764686,67 L150.764686,67 Z" id="Grass" stroke="#84AA58" stroke-width="2" stroke-linecap="round" stroke-linejoin="round" fill="#B8E986"></path>
                    <g id="Trees" transform="translate(74.000000, 28.500000) scale(-1, 1) translate(-74.000000, -28.500000) translate(9.000000, 0.000000)" stroke-linecap="round" stroke-width="2" stroke-linejoin="round">
                        <g id="Tree" transform="translate(27.000000, 6.000000)">
                            <rect id="Rectangle-5" stroke="#7F7368" fill="#9C8A7B" x="8.76190476" y="37.5789474" width="4.38095238" height="13.4210526"></rect>
                            <path d="M15.5350877,21.4736842 L19.7142857,21.4736842 L11.5,0 L3.28571429,21.4736842 L7.46491228,21.4736842 L0.547619048,37.5789474 L22.452381,37.5789474 L15.5350877,21.4736842 Z" id="Combined-Shape" stroke="#6F7C60" fill="#88947B"></path>
                        </g>
                        <g id="Tree">
                            <rect id="Rectangle-5" stroke="#7F7368" fill="#9C8A7B" x="11.8095238" y="42" width="5.9047619" height="15"></rect>
                            <path d="M20.9385965,24 L26.5714286,24 L15.5,0 L4.42857143,24 L10.0614035,24 L0.738095238,42 L30.2619048,42 L20.9385965,24 Z" id="Combined-Shape" stroke="#6F7C60" fill="#88947B"></path>
                        </g>
                        <g id="Tree" transform="translate(62.000000, 6.000000)">
                            <rect id="Rectangle-5" stroke="#7F7368" fill="#9C8A7B" x="10.6666667" y="37.5789474" width="5.33333333" height="13.4210526"></rect>
                            <path d="M18.9122807,21.4736842 L24,21.4736842 L14,0 L4,21.4736842 L9.0877193,21.4736842 L0.666666667,37.5789474 L27.3333333,37.5789474 L18.9122807,21.4736842 Z" id="Combined-Shape" stroke="#6F7C60" fill="#88947B"></path>
                        </g>
                        <g id="Tree" transform="translate(37.000000, 2.000000)">
                            <rect id="Rectangle-5" stroke="#7F7368" fill="#9C8A7B" x="11.4285714" y="40.5263158" width="5.71428571" height="14.4736842"></rect>
                            <path d="M20.2631579,23.1578947 L25.7142857,23.1578947 L15,0 L4.28571429,23.1578947 L9.73684211,23.1578947 L0.714285714,40.5263158 L29.2857143,40.5263158 L20.2631579,23.1578947 Z" id="Combined-Shape" stroke="#6F7C60" fill="#88947B"></path>
                        </g>
                        <g id="Tree" transform="translate(53.000000, 19.000000)">
                            <rect id="Rectangle-5" stroke="#7F7368" fill="#9C8A7B" x="8" y="28" width="4" height="10"></rect>
                            <path d="M14.1842105,16 L18,16 L10.5,0 L3,16 L6.81578947,16 L0.5,28 L20.5,28 L14.1842105,16 Z" id="Combined-Shape" stroke="#6F7C60" fill="#88947B"></path>
                        </g>
                        <g id="Tree" transform="translate(107.000000, 14.000000)">
                            <rect id="Rectangle-5" stroke="#7F7368" fill="#9C8A7B" x="8.76190476" y="31.6842105" width="4.38095238" height="11.3157895"></rect>
                            <path d="M15.5350877,18.1052632 L19.7142857,18.1052632 L11.5,0 L3.28571429,18.1052632 L7.46491228,18.1052632 L0.547619048,31.6842105 L22.452381,31.6842105 L15.5350877,18.1052632 Z" id="Combined-Shape" stroke="#6F7C60" fill="#88947B"></path>
                        </g>
                        <g id="Tree" transform="translate(17.000000, 14.000000)">
                            <rect id="Rectangle-5" stroke="#7F7368" fill="#9C8A7B" x="8.76190476" y="31.6842105" width="4.38095238" height="11.3157895"></rect>
                            <path d="M15.5350877,18.1052632 L19.7142857,18.1052632 L11.5,0 L3.28571429,18.1052632 L7.46491228,18.1052632 L0.547619048,31.6842105 L22.452381,31.6842105 L15.5350877,18.1052632 Z" id="Combined-Shape" stroke="#6F7C60" fill="#88947B"></path>
                        </g>
                        <g id="Tree" transform="translate(80.000000, 20.000000)">
                            <rect id="Rectangle-5" stroke="#7F7368" fill="#9C8A7B" x="7.61904762" y="27.2631579" width="3.80952381" height="9.73684211"></rect>
                            <path d="M13.5087719,15.5789474 L17.1428571,15.5789474 L10,0 L2.85714286,15.5789474 L6.49122807,15.5789474 L0.476190476,27.2631579 L19.5238095,27.2631579 L13.5087719,15.5789474 Z" id="Combined-Shape" stroke="#6F7C60" fill="#88947B"></path>
                        </g>
                    </g>
                    <g id="Grass-Tufts" transform="translate(76.500000, 54.500000) scale(-1, 1) translate(-76.500000, -54.500000) translate(7.000000, 51.000000)" stroke="#84AA58" stroke-width="2" stroke-linecap="round" stroke-linejoin="round">
                        <polyline id="Path-19" points="60.921875 2.56380553 63.4873047 5.75097656 65.7460938 1.22545282"></polyline>
                        <polyline id="----------------" transform="translate(30.925626, 4.741324) scale(-1, 1) rotate(-14.000000) translate(-30.925626, -4.741324) " points="29.3174794 3.83576413 30.8153123 5.64688305 32.5337723 3.83576413"></polyline>
                        <g id="Tufts" transform="translate(131.000000, 2.000000)">
                            <polyline id="Path-19" transform="translate(5.233854, 2.311448) rotate(20.000000) translate(-5.233854, -2.311448) " points="6.68990682 1.54421742 5.14130361 4.18946903 3.77780181 0.433426801"></polyline>
                            <path d="M3.69824219,3.14160156 L1,2" id="Path-21"></path>
                        </g>
                        <g id="Tufts">
                            <polyline id="Path-19" points="0.921875 2.56380553 3.48730469 5.75097656 4.10449219 0.899902344"></polyline>
                            <path d="M6.54964463,3 L5,5.48643652" id="Path-21"></path>
                        </g>
                    </g>
                    <g id="Rock-Lines" transform="translate(23.000000, 82.000000)" stroke="#A39180" stroke-linecap="round" stroke-linejoin="round">
                        <path d="M47.5,33.5 L50.5,22.5" id="Path-30"></path>
                        <path d="M24.5,18.5 L31.5,9.5" id="Path-30"></path>
                        <path d="M4.5,13.5 L2.5,11.5" id="Path-30"></path>
                        <path d="M5.5,10.5 L0.5,1.5" id="Path-30"></path>
                        <path d="M45.3208759,37.1630433 L44.5,32.5" id="Path-30"></path>
                        <path d="M67.5,27.5 L55.5,13.5" id="Path-30"></path>
                        <path d="M88.5,6.5 L93.5,0.5" id="Path-30"></path>
                        <path d="M106.5,5.5 L106.5,4.5" id="Path-30"></path>
                        <path d="M104.5,3.5 L103.5,0.5" id="Path-30"></path>
                        <path d="M73.5,3.5 L71.5,1.5" id="Path-30"></path>
                        <path d="M75.5,3.5 L76.5,2.5" id="Path-30"></path>
                        <path d="M58.5,12.5 L55.5,9.5" id="Path-30"></path>
                    </g>
                    <path d="M44.5020806,422.302307 C44.5020806,416.6125 38.6934496,412 31.52814,412 C24.3628305,412 18.5541994,416.6125 18.5541994,422.302307 C18.5541994,427.992114 24.3628305,426.940357 31.52814,426.940357 C38.6934496,426.940357 44.5020806,427.992114 44.5020806,422.302307 Z" id="Oval-1" stroke="#ADAFAB" stroke-width="2" stroke-linecap="round" stroke-linejoin="round" fill="#CBD0C6"></path>
                    <path d="M42.3023069,427.039966 C46.8875443,427.039966 50.6046137,427.887544 50.6046137,423.302307 C50.6046137,418.717069 46.8875443,415 42.3023069,415 C37.7170694,415 34,418.717069 34,423.302307 C34,427.887544 37.7170694,427.039966 42.3023069,427.039966 Z" id="Oval-1" stroke="#ADAFAB" stroke-width="2" stroke-linecap="round" stroke-linejoin="round" fill="#CBD0C6"></path>
                    <g id="Waterfall" transform="translate(29.000000, 55.000000)" stroke="#6C86A2" stroke-width="2" fill="#A0BAD9" stroke-linecap="round" opacity="0.8" stroke-linejoin="round">
                        <rect id="Water" x="0" y="0" width="15" height="372" rx="3"></rect>
                        <path d="M3.5,12.6702997 L3.5,65.8879714" id="Line"></path>
                        <path d="M11.5,57.7708089 L11.5,68.9264305" id="Line"></path>
                        <path d="M11.5,86.6648501 L11.5,121.634877" id="Line"></path>
                        <path d="M9.5,5.06811989 L9.5,48.653951" id="Line"></path>
                        <path d="M6.5,113.525886 L6.5,210.83511" id="Line"></path>
                        <path d="M5.5,77.8245871 L5.5,92.2411044" id="Line"></path>
                        <path d="M11.5,193.60218 L11.5,274.69342" id="Line"></path>
                        <path d="M11.5,298.00545 L11.5,368.959128" id="Line"></path>
                        <path d="M3.5,302.059946 L3.5,353.777122" id="Line"></path>
                        <path d="M7.5,337.531916 L7.5,363.913361" id="Line"></path>
                        <path d="M3.5,220.970027 L3.5,262.529933" id="Line"></path>
                        <path d="M6.5,254.412581 L6.5,301.049075" id="Line"></path>
                        <path d="M12.5,148.24805 L12.5,177.385519" id="Line"></path>
                    </g>
                    <rect id="Rectangle-37" stroke="#6C86A2" stroke-width="2" stroke-linecap="round" stroke-linejoin="round" fill="#A0BAD9" opacity="0.8" x="21" y="421" width="27" height="5" rx="2.5"></rect>
                    <g id="DROPLETS" transform="translate(26.000000, 418.000000)" fill="#D6E1EB" opacity="0.8">
                        <circle id="Oval-11" cx="4.5" cy="0.5" r="0.5"></circle>
                        <circle id="Oval-11" cx="3.5" cy="4.5" r="0.5"></circle>
                        <circle id="Oval-11" cx="1" cy="2" r="1"></circle>
                        <circle id="Oval-11" cx="16" cy="5" r="1"></circle>
                        <circle id="Oval-11" cx="6" cy="5" r="1"></circle>
                        <circle id="Oval-11" cx="11" cy="2" r="1"></circle>
                        <circle id="Oval-11" cx="19" cy="4" r="1"></circle>
                        <circle id="Oval-11" cx="7.5" cy="2.5" r="0.5"></circle>
                        <circle id="Oval-11" cx="19.5" cy="1.5" r="0.5"></circle>
                        <circle id="Oval-11" cx="14.5" cy="0.5" r="0.5"></circle>
                        <circle id="Oval-11" cx="13.5" cy="3.5" r="0.5"></circle>
                    </g>
                    <g id="DROPLETS" opacity="0.8" transform="translate(26.000000, 416.000000)" fill="#B5CEE4">
                        <circle id="Oval-11" transform="translate(5.500000, 4.500000) rotate(-75.000000) translate(-5.500000, -4.500000) " cx="5.5" cy="4.5" r="0.5"></circle>
                        <circle id="Oval-11" transform="translate(2.000000, 5.000000) rotate(-75.000000) translate(-2.000000, -5.000000) " cx="2" cy="5" r="1"></circle>
                        <circle id="Oval-11" transform="translate(10.000000, 5.000000) rotate(-75.000000) translate(-10.000000, -5.000000) " cx="10" cy="5" r="1"></circle>
                        <circle id="Oval-11" transform="translate(20.000000, 4.000000) rotate(-75.000000) translate(-20.000000, -4.000000) " cx="20" cy="4" r="1"></circle>
                        <circle id="Oval-11" transform="translate(8.500000, 2.500000) rotate(-75.000000) translate(-8.500000, -2.500000) " cx="8.5" cy="2.5" r="0.5"></circle>
                        <circle id="Oval-11" transform="translate(17.500000, 1.500000) rotate(-75.000000) translate(-17.500000, -1.500000) " cx="17.5" cy="1.5" r="0.5"></circle>
                        <circle id="Oval-11" transform="translate(14.500000, 4.500000) rotate(-75.000000) translate(-14.500000, -4.500000) " cx="14.5" cy="4.5" r="0.5"></circle>
                    </g>
                    <g id="Rocks" transform="translate(15.000000, 50.000000)" stroke="#ADAFAB" stroke-width="2" fill="#CBD0C6" stroke-linecap="round" stroke-linejoin="round">
                        <path d="M32.5,7.07568359 C34.4329966,7.07568359 36,7.43299662 36,5.5 C36,3.56700338 34.4329966,2 32.5,2 C30.5670034,2 29,3.56700338 29,5.5 C29,7.43299662 30.5670034,7.07568359 32.5,7.07568359 Z" id="Oval-1"></path>
                        <path d="M36.1279123,7.08588848 C37.3031259,7.08588848 38.2558247,7.30312585 38.2558247,6.12791233 C38.2558247,4.9526988 37.3031259,4 36.1279123,4 C34.9526988,4 34,4.9526988 34,6.12791233 C34,7.30312585 34.9526988,7.08588848 36.1279123,7.08588848 Z" id="Oval-1"></path>
                        <path d="M8.87208767,7.06547871 C11.5628674,7.06547871 13.7441753,7.5628674 13.7441753,4.87208767 C13.7441753,2.18130795 11.5628674,0 8.87208767,0 C6.18130795,0 4,2.18130795 4,4.87208767 C4,7.5628674 6.18130795,7.06547871 8.87208767,7.06547871 Z" id="Oval-1"></path>
                        <path d="M13.1279123,7.08588848 C14.3031259,7.08588848 15.2558247,7.30312585 15.2558247,6.12791233 C15.2558247,4.9526988 14.3031259,4 13.1279123,4 C11.9526988,4 11,4.9526988 11,6.12791233 C11,7.30312585 11.9526988,7.08588848 13.1279123,7.08588848 Z" id="Oval-1"></path>
                        <path d="M2.81395616,7.08078604 C4.36806124,7.08078604 5.62791233,7.36806124 5.62791233,5.81395616 C5.62791233,4.25985109 4.36806124,3 2.81395616,3 C1.25985109,3 0,4.25985109 0,5.81395616 C0,7.36806124 1.25985109,7.08078604 2.81395616,7.08078604 Z" id="Oval-1"></path>
                    </g>
                </g>
                <g id="Little-Island" transform="translate(93.000000, 67.000000)" stroke-linecap="round" stroke-linejoin="round">
                    <path d="M29.6211494,53.6203055 C26.6173139,57.7108994 23.7983527,61 22.5,61 C19.0666504,61 5,38 5,38 L31.5,38 L58,38 C58,38 43.9333496,73 40.5,73 C38.6601874,73 33.7670061,62.9496964 29.6211494,53.6203055 Z" id="Rocks" stroke="#A39180" stroke-width="2" fill="#C3A68B"></path>
                    <path d="M10.7521259,46.9706935 C7.5545544,42.1768829 5,38 5,38 L31.5,38 L58,38 C58,38 56.9606964,40.585948 55.3781372,44.3520372 C54.4090267,44.6311744 53.3842968,44.7811687 52.3059211,44.7811687 C50.5045014,44.7811687 48.8300192,44.355433 47.2985226,43.5876403 L47.9707747,42.2467163 L48.9603768,43.3739641 C45.4717009,46.4366456 40.3672168,48.2188313 34.5677072,48.2188313 C31.0869447,48.2188313 27.8553868,47.198715 24.8976781,45.3570335 L26.4249008,45.3916501 C23.638546,46.9560739 20.5535118,47.8360165 17.1940789,47.8360165 C14.8812842,47.8360165 12.7139141,47.5328197 10.7521259,46.9706935 L10.7521259,46.9706935 Z" id="Grass-Shadow" stroke="#A39180" fill="#A39180" opacity="0.597831157"></path>
                    <path d="M60.5211182,36.8815789 C60.8218246,36.4766869 61,35.9747802 61,35.4312087 C61,34.079128 59.9152465,33 58.5771352,33 L4.42286478,33 C3.08718905,33 2,34.0884892 2,35.4312087 C2,36.1111265 2.27430808,36.7220211 2.71720132,37.1613767 C3.1432738,37.9542113 3.98365365,39.3082224 5.24138226,40.4147186 C7.71742959,42.5930397 11.7823803,44.3360165 17.1940789,44.3360165 C20.5840173,44.3360165 23.4292042,43.3533545 25.6905435,42.0837054 C28.1488625,43.6144311 31.1178922,44.7188313 34.5677072,44.7188313 C40.3121919,44.7188313 44.9622883,42.8878432 47.9707747,40.2467163 C49.1635612,40.8447018 50.6137606,41.2811687 52.3059211,41.2811687 C57.6783662,41.2811687 60.6118421,36.8815789 60.6118421,36.8815789 L60.5211182,36.8815789 L60.5211182,36.8815789 Z" id="Grass" stroke="#84AA58" stroke-width="2" fill="#B8E986"></path>
                    <g id="Grass-Tufts" transform="translate(18.000000, 27.000000)" stroke="#84AA58" stroke-width="2">
                        <g id="Tufts" transform="translate(36.000000, 0.000000)">
                            <polyline id="Path-19" transform="translate(3.921840, 2.910097) rotate(20.000000) translate(-3.921840, -2.910097) " points="4.92184003 1.92173349 3.85827728 5.32940577 2.92184003 0.490788183"></polyline>
                            <path d="M1.36328125,4.24902344 L0,3" id="Path-21"></path>
                        </g>
                        <polyline id="----------------" transform="translate(2.902362, 3.728412) scale(-1, 1) rotate(-14.000000) translate(-2.902362, -3.728412) " points="0.610095008 2.4376196 2.74511981 5.01920517 5.19462843 2.4376196"></polyline>
                    </g>
                    <g id="Rock-Lines" transform="translate(19.000000, 47.000000)" stroke="#A39180">
                        <path d="M22,17.2714844 L27.9482422,5" id="Path-30"></path>
                        <path d="M22,22.2714844 L26.5,13.5" id="Path-30"></path>
                        <path d="M9.5,3.5 L8.5,1.5" id="Path-32"></path>
                        <path d="M11,3.87482496 L11.5,2.5" id="Path-32"></path>
                        <path d="M3.39931774,10.8009076 L0.5,7.5" id="Path-32"></path>
                    </g>
                    <g id="Trees" stroke-width="2">
                        <g id="Tree" transform="translate(39.000000, 5.000000)">
                            <rect id="Rectangle-5" stroke="#7F7368" fill="#9C8A7B" x="6.47619048" y="20.6315789" width="3.23809524" height="7.36842105"></rect>
                            <path d="M11.4824561,11.7894737 L14.5714286,11.7894737 L8.5,0 L2.42857143,11.7894737 L5.51754386,11.7894737 L0.404761905,20.6315789 L16.5952381,20.6315789 L11.4824561,11.7894737 Z" id="Combined-Shape" stroke="#6F7C60" fill="#88947B"></path>
                        </g>
                        <g id="Tree" transform="translate(26.000000, 0.000000)">
                            <rect id="Rectangle-5" stroke="#7F7368" fill="#9C8A7B" x="7.61904762" y="24.3157895" width="3.80952381" height="8.68421053"></rect>
                            <path d="M13.5087719,13.8947368 L17.1428571,13.8947368 L10,0 L2.85714286,13.8947368 L6.49122807,13.8947368 L0.476190476,24.3157895 L19.5238095,24.3157895 L13.5087719,13.8947368 Z" id="Combined-Shape" stroke="#6F7C60" fill="#88947B"></path>
                        </g>
                        <g id="Tree" transform="translate(22.000000, 8.000000)">
                            <rect id="Rectangle-5" stroke="#7F7368" fill="#9C8A7B" x="5.71428571" y="18.4210526" width="2.85714286" height="6.57894737"></rect>
                            <path d="M10.1315789,10.5263158 L12.8571429,10.5263158 L7.5,0 L2.14285714,10.5263158 L4.86842105,10.5263158 L0.357142857,18.4210526 L14.6428571,18.4210526 L10.1315789,10.5263158 Z" id="Combined-Shape" stroke="#6F7C60" fill="#88947B"></path>
                        </g>
                        <g id="Tree" transform="translate(0.000000, 5.000000)">
                            <rect id="Rectangle-5" stroke="#7F7368" fill="#9C8A7B" x="6.47619048" y="20.6315789" width="3.23809524" height="7.36842105"></rect>
                            <path d="M11.4824561,11.7894737 L14.5714286,11.7894737 L8.5,0 L2.42857143,11.7894737 L5.51754386,11.7894737 L0.404761905,20.6315789 L16.5952381,20.6315789 L11.4824561,11.7894737 Z" id="Combined-Shape" stroke="#6F7C60" fill="#88947B"></path>
                        </g>
                    </g>
                </g>
                <g id="Medium-Island" transform="translate(166.000000, 0.000000)" stroke-linecap="round" stroke-linejoin="round">
                    <g id="Rocks" transform="translate(1.000000, 80.000000)" stroke="#A39180">
                        <path d="M20.5,24 C24.5219238,24 41,3 41,3 L0,3 C0,3 16.4780762,24 20.5,24 Z" id="Back-Rock" stroke-width="2" fill="#C3A68B"></path>
                        <path d="M60.5,29 C65.5028809,29 86,3 86,3 L35,3 C35,3 55.4971191,29 60.5,29 Z" id="Back-Rock" stroke-width="2" fill="#C3A68B"></path>
                        <path d="M41.5,33 C46.5028809,33 67,3 67,3 L16,3 C16,3 36.4971191,33 41.5,33 Z" id="Back-Rock" stroke-width="2" fill="#C3A68B"></path>
                        <g id="Shadows" transform="translate(15.000000, 6.000000)" fill="#A39180" opacity="0.597831157">
                            <path d="M12.4338089,12.727719 C11.7617782,13.4123362 11.1061441,14.0571461 10.4786555,14.6450942 C8.01621307,11.4249811 5.5000122,7.99067255 3.05836569,4.55672071 C2.1802643,3.32175164 1.37458872,2.17484846 0.65885854,1.14524149 C0.626025745,1.09801018 0.593691544,1.05147015 0.561860861,1.00562961 C1.56533663,0.841840862 2.49008729,0.614574237 3.33388218,0.350142477 L3.33388218,0.350142477 C5.4816449,3.3961006 8.86651706,8.1080389 12.4338089,12.727719 L12.4338089,12.727719 L12.4338089,12.727719 Z M39.2666278,18.8085862 C38.6250924,18.2092162 37.9601484,17.5626788 37.2798729,16.880644 C41.6447082,11.5170472 46.2166921,5.21905736 49.0849796,1.17218097 C50.0779901,1.26204162 51.1172922,1.32202785 52.2020648,1.34515805 L52.2020648,1.34515806 C51.5215753,2.32260006 50.7633135,3.4011043 49.9416343,4.55672071 C47.4322468,8.08594406 44.8441107,11.6155441 42.3165175,14.9126113 C41.4846005,15.9977884 40.6712057,17.0418409 39.8792711,18.0398161 C39.6728174,18.2999837 39.4686094,18.5562458 39.2666278,18.8085862 L39.2666278,18.8085862 L39.2666278,18.8085862 Z" id="Shadow"></path>
                            <path d="M16.0013746,0.82512302 C16.1334966,1.03310292 16.2694603,1.24640927 16.408998,1.46454542 C17.692033,3.47028426 19.0154485,5.47641437 20.3087687,7.35162985 C20.7348292,7.96938499 21.1515261,8.56390404 21.5573971,9.13242035 C25.1177236,14.1194821 27.2320103,16.5 29,16.5 C31.0841922,16.5 33.9989887,12.8722908 38.8856027,5.59591013 L36.3954874,5.59647984 C42.1174932,14.1083775 45.6605946,18.5 48,18.5 C49.9960106,18.5 52.6157021,15.5395927 56.8799097,9.54462282 C57.3782974,8.84394897 57.8900683,8.11109941 58.4134045,7.34951214 C59.9023918,5.18265724 61.4242494,2.87344855 62.9074054,0.555584077 C61.8550079,0.747241872 60.7199788,0.910937959 59.5051346,1.03940416 C55.4783821,7.14178747 49.9202254,15 48,15 C46.256322,15 41.5129103,8.5203439 37.6403537,2.7596357 C34.4553653,7.50222189 30.4504156,13 29,13 C27.4383015,13 22.9150392,6.62622655 19.6425485,1.684175 C18.9222022,1.40090096 18.2463879,1.07804781 17.6184438,0.721771127 C17.091355,0.770873468 16.5522953,0.805832335 16.0013746,0.82512302 L16.0013746,0.82512302 Z" id="Shadow"></path>
                        </g>
                        <path d="M48.2466241,2 C47.4677538,0.763772445 47,0 47,0 L79,0 C79,0 66.1390625,21 63,21 C61.256322,21 56.5129103,14.5203439 52.6403537,8.7596357 C49.4553653,13.5022219 45.4504156,19 44,19 C41.4495117,19 31,2 31,2 L48.2466241,2 L48.2466241,2 Z" id="Combined-Shape" stroke-width="2" fill="#C3A68B"></path>
                        <path d="M19.3993177,19.8009076 L14.5,14.5" id="Path-32"></path>
                        <path d="M43.5,15.5 L42.5,12.5" id="Path-32"></path>
                        <path d="M63.5,17.5 L67.5,12.5" id="Path-32"></path>
                        <path d="M33.5,21.5 L25.5,10.5" id="Path-32"></path>
                        <path d="M42.5,29.5 L49.5,21.5" id="Path-32"></path>
                        <path d="M60.5,26.5 L61.5,25.5" id="Path-32"></path>
                        <path d="M38.5,23.5 L36.5,20.5" id="Path-32"></path>
                    </g>
                    <path d="M6.59803221,89.8487741 C4.31869726,87.1476108 2.44232181,84.8146824 1.55410369,83.6994436 C1.57004814,83.7056322 1.58607265,83.7116565 1.60217511,83.7175144 L1.60217511,83.7175144 C3.34033919,84.9936364 7.27110248,87.2811687 13.1147971,87.2811687 C16.4262675,87.2811687 19.1234583,86.5465974 21.1554782,85.6777637 C23.9255236,86.4058621 27.249477,86.8425954 31,86.8425954 C31.9030915,86.8425954 32.7760558,86.800246 33.6184438,86.7217711 C36.0780601,88.1172839 39.2721218,89 43,89 C47.5750131,89 51.1706634,86.7765172 53.6933187,84.4264658 C56.9000552,85.7830475 62.1414836,87.3558385 69.2072368,87.3558385 C76.2276565,87.3558385 81.5009839,86.275191 84.7130791,84.9246296 C85.1608951,84.7363404 85.5679267,84.536491 85.9342553,84.335448 C85.0009672,85.496745 83.514549,87.3286951 81.7163152,89.4826489 C78.2820832,90.3584277 74.0039334,90.8558385 69.2072368,90.8558385 C62.9380247,90.8558385 57.5518824,89.6874989 53.1089005,87.8079343 L54.7157663,87.5240089 C51.3740547,90.6370756 47.4577383,92.5 43,92.5 C39.1773308,92.5 35.6954338,91.6248076 32.8782304,90.0264106 L33.6184438,88.7217711 L33.7575778,90.2153044 C32.8523614,90.2996322 31.9330833,90.3425954 31,90.3425954 C27.2578168,90.3425954 23.7874822,89.9205294 20.77416,89.1284865 L21.7451917,89.0569802 C19.1812101,90.1532654 16.2973721,90.7811687 13.1147971,90.7811687 C10.729426,90.7811687 8.55439625,90.4411518 6.59803221,89.8487741 L6.59803221,89.8487741 Z" id="Grass-Shadow" stroke="#A39180" fill="#A39180" opacity="0.597831157"></path>
                    <path d="M1.60217511,83.7175144 C0.670664487,83.3786402 -2.84217094e-14,82.4829095 -2.84217094e-14,81.4312087 C-2.84217094e-14,80.079128 1.08646732,79 2.42669269,79 L86.5733073,79 C87.9068204,79 89,80.0884892 89,81.4312087 C89,82.7290418 87.9989653,83.7753855 86.7333439,83.8572582 C86.1914247,84.2102552 85.5181611,84.5861239 84.7130791,84.9246296 C81.5009839,86.275191 76.2276565,87.3558385 69.2072368,87.3558385 C62.1414836,87.3558385 56.9000552,85.7830475 53.6933187,84.4264658 C51.1706634,86.7765172 47.5750131,89 43,89 C39.2721218,89 36.0780601,88.1172839 33.6184438,86.7217711 C32.7760558,86.800246 31.9030915,86.8425954 31,86.8425954 C27.249477,86.8425954 23.9255236,86.4058621 21.1554782,85.6777637 C19.1234583,86.5465974 16.4262675,87.2811687 13.1147971,87.2811687 C7.27110248,87.2811687 3.34033919,84.9936364 1.60217511,83.7175144 L1.60217511,83.7175144 Z" id="Grass" stroke="#84AA58" stroke-width="2" fill="#B8E986"></path>
                    <g id="Tufts" transform="translate(8.000000, 75.500000) scale(-1, 1) translate(-8.000000, -75.500000) translate(5.000000, 72.000000)" stroke="#84AA58" stroke-width="2">
                        <polyline id="Path-19" transform="translate(3.488717, 3.752453) rotate(20.000000) translate(-3.488717, -3.752453) " points="4.94963691 2.76408956 3.3958568 6.17176184 2.02779688 1.33314425"></polyline>
                        <path d="M1.36328125,5.24902344 L0,4" id="Path-21"></path>
                    </g>
                    <g id="Tower" transform="translate(43.000000, 0.000000)">
                        <rect id="Rectangle-26" stroke="#ADAFAB" stroke-width="2" fill="#CBD0C6" x="8" y="18" width="22" height="61" rx="8"></rect>
                        <rect id="Rectangle-27" stroke="#ADAFAB" stroke-width="2" fill="#CBD0C6" x="0" y="75" width="38" height="4" rx="2"></rect>
                        <rect id="Rectangle-27" stroke="#ADAFAB" stroke-width="2" fill="#CBD0C6" x="4.47058824" y="71" width="30.1764706" height="4" rx="2"></rect>
                        <path d="M16.0354444,62.2727273 L16,62.2727273 L16,71 L23,71 L23,62.2727273 L22.9645556,62.2727273 C22.7219407,60.422385 21.263236,59 19.5,59 C17.736764,59 16.2780593,60.422385 16.0354444,62.2727273 L16.0354444,62.2727273 Z" id="Door" stroke="#B99595" stroke-width="2" fill="#D8AEAE"></path>
                        <path d="M30,34.5 L30,26.0060244 C30,21.5880925 26.4161563,18 21.995261,18 L16.004739,18 C11.5836436,18 8,21.5844192 8,26.0060244 L8,34.5 L30,34.5 L30,34.5 Z" id="Shadow" stroke="#ADB1A8" fill="#ADB1A8" opacity="0.597831157"></path>
                        <polygon id="Triangle-82" stroke="#B99595" stroke-width="2" fill="#D8AEAE" points="19 0 38 31 0 31"></polygon>
                        <g id="Window" transform="translate(16.000000, 39.000000)" stroke="#9FB5B0">
                            <rect id="Rectangle-29" stroke-width="2" fill="#B8CEC9" x="0" y="0" width="7" height="7"></rect>
                            <path d="M3.5,6.61111111 L3.5,0.388888889" id="Line"></path>
                            <path d="M0.388888889,3.5 L6.61111111,3.5" id="Line"></path>
                        </g>
                        <g id="Roof-Detail" transform="translate(3.000000, 4.000000)">
                            <path d="M11.9861401,42.5 L21.011898,42.5" id="Line" stroke="#9FB5B0" stroke-width="2" fill="#B8CEC9"></path>
                            <path d="M1.5,21.5 L31.5,21.5" id="Line" stroke="#B99595" fill="#D8AEAE"></path>
                            <path d="M0.5,23 L31.5,23" id="Line" stroke="#B99595" stroke-width="2" fill="#D8AEAE" opacity="0.6"></path>
                            <path d="M3,18 L29,18" id="Line" stroke="#B99595" stroke-width="2" fill="#D8AEAE" opacity="0.6"></path>
                            <path d="M6,13 L26,13" id="Line" stroke="#B99595" stroke-width="2" fill="#D8AEAE" opacity="0.6"></path>
                            <path d="M9,8 L23,8" id="Line" stroke="#B99595" stroke-width="2" fill="#D8AEAE" opacity="0.6"></path>
                            <path d="M12,3 L20,3" id="Line" stroke="#B99595" stroke-width="2" fill="#D8AEAE" opacity="0.6"></path>
                            <path d="M3.5,16.5 L28.5,16.5" id="Line" stroke="#B99595" fill="#D8AEAE"></path>
                            <path d="M6.5,11.5 L25.5,11.5" id="Line" stroke="#B99595" fill="#D8AEAE"></path>
                            <path d="M9.5,6.5 L22.5,6.5" id="Line" stroke="#B99595" fill="#D8AEAE"></path>
                            <path d="M12.5,1.5 L19.5,1.5" id="Line" stroke="#B99595" fill="#D8AEAE"></path>
                        </g>
                    </g>
                    <g id="Trees" transform="translate(16.000000, 33.000000)" stroke-width="2">
                        <g id="Tree" transform="translate(14.000000, 0.000000)">
                            <rect id="Rectangle-5" stroke="#7F7368" fill="#9C8A7B" x="9.52380952" y="33.8947368" width="4.76190476" height="12.1052632"></rect>
                            <path d="M16.8859649,19.3684211 L21.4285714,19.3684211 L12.5,0 L3.57142857,19.3684211 L8.11403509,19.3684211 L0.595238095,33.8947368 L24.4047619,33.8947368 L16.8859649,19.3684211 Z" id="Combined-Shape" stroke="#6F7C60" fill="#88947B"></path>
                        </g>
                        <g id="Tree" transform="translate(0.000000, 9.000000)">
                            <rect id="Rectangle-5" stroke="#7F7368" fill="#9C8A7B" x="7.61904762" y="27.2631579" width="3.80952381" height="9.73684211"></rect>
                            <path d="M13.5087719,15.5789474 L17.1428571,15.5789474 L10,0 L2.85714286,15.5789474 L6.49122807,15.5789474 L0.476190476,27.2631579 L19.5238095,27.2631579 L13.5087719,15.5789474 Z" id="Combined-Shape" stroke="#6F7C60" fill="#88947B"></path>
                        </g>
                    </g>
                </g>
            </g>
            <g id="Island-Group-3" transform="translate(310.000000, 347.000000)" stroke-linecap="round" stroke-linejoin="round">
                <g id="Large-Island" transform="translate(247.000000, 42.000000)">
                    <g id="Rocks" transform="translate(7.000000, 71.000000)" stroke="#A39180">
                        <path d="M74,59.4242424 C79.6895508,59.4242424 103,19 103,19 L45,19 C45,19 68.3104492,59.4242424 74,59.4242424 Z" id="Triangle-1" stroke-width="2" fill="#C3A68B"></path>
                        <path d="M52,62 C58.4743164,62 85,16 85,16 L19,16 C19,16 45.5256836,62 52,62 Z" id="Back-Rock" stroke-width="2" fill="#C3A68B"></path>
                        <path d="M111,40 C117.474316,40 144,0 144,0 L78,0 C78,0 104.525684,40 111,40 Z" id="Combined-Rocks" stroke-width="2" fill="#C3A68B"></path>
                        <g id="Shadows" transform="translate(30.000000, 3.000000)" fill="#A39180" opacity="0.597831157">
                            <path d="M46.1293625,32.6144108 C44.810376,34.7230955 43.4924887,36.7975231 42.1872472,38.8148409 C41.1128627,40.4753573 40.0625259,42.0727525 39.0400722,43.5993935 C37.8925459,45.3127822 36.7989187,46.9147992 35.7574897,48.4033331 C35.4578022,48.0050561 34.6831576,47.0172626 34.0484045,46.2110991 C37.4700441,41.3845688 41.0993609,35.8053132 44.358891,30.6139517 C44.952077,31.2916277 45.5428244,31.9593634 46.1293625,32.6144108 L46.1293625,32.6144108 Z" id="Combined-Shape"></path>
                            <path d="M55.4031616,44.0260492 C55.1098855,44.4465376 54.8178869,44.8616931 54.5276236,45.2706117 C54.4845288,45.2401834 54.4425651,45.2071653 54.4019282,45.1715336 C48.5678655,40.0560449 40.3850716,30.6738445 30.9327485,18.7421144 L33.3612224,18.6357294 C28.5734564,25.9051645 25.6581901,29.5 23.5,29.5 C21.2646851,29.5 18.1460184,25.5732519 13.0290029,17.7038462 L15.5257613,17.7313154 C10.3974155,25.2508021 5.97450798,31.1585842 2.65896344,34.6837662 C2.57198134,34.7762481 2.47671405,34.8548874 2.37562826,34.9199154 C2.12312327,34.5270609 1.87177776,34.1346276 1.62182453,33.7430752 C1.69974569,33.6670439 1.77837847,33.5894428 1.85772966,33.5102756 L0.798300889,32.4483854 C4.52167822,28.7336386 9.74095136,21.551148 14.2865294,14.88615 C17.9398758,20.504594 21.9176597,26 23.5,26 C24.9953596,26 28.6300476,21.0921499 32.1085117,15.8106742 C39.8409668,25.5714035 49.6240864,37.2526961 56.2600728,42.7877783 L55.2992745,43.9396753 C55.3340001,43.96864 55.3686292,43.9974314 55.4031616,44.0260492 L55.4031616,44.0260492 Z" id="Shadow"></path>
                            <path d="M76.7497024,34.4438591 C77.4327746,35.0606487 78.070796,35.5806045 78.654126,35.9871676 C80.1182145,34.3596877 81.6501496,32.6060917 83.2427164,30.7377531 C84.5439092,29.2112435 85.8806134,27.6139536 87.2479393,25.9535253 C91.4039614,20.906611 95.6608262,15.5021086 99.7883319,10.0979691 C101.232771,8.20676561 102.558017,6.45049962 103.73518,4.87402769 C104.147425,4.32194387 104.511795,3.8316564 104.824678,3.40877509 C105.012805,3.15450944 105.142208,2.97888095 105.209274,2.88750064 C105.936379,1.89677516 105.22891,0.5 104,0.5 L103.63113,0.5 L103.63113,0.5 C101.248428,3.72083442 87.7739702,21.8006962 76.4574374,34.1766121 L76.7497024,34.4438591 L76.7497024,34.4438591 Z" id="Shadow"></path>
                        </g>
                        <path d="M52,3 L134,3 C134,3 100.240039,49 92,49 C87.0084243,49 72.6521002,32.1199158 62.1085117,18.8106742 C58.6300476,24.0921499 54.9953596,29 53.5,29 C51.9176597,29 47.9398758,23.504594 44.2865294,17.88615 C37.7882757,27.4142777 29.9131978,38 27,38 C21.702832,38 0,3 0,3 L52,3 L52,3 Z" id="Combined-Shape" stroke-width="2" fill="#C3A68B"></path>
                        <path d="M137.280359,9.80511077 C136.000983,11.6283847 134.596567,13.6059586 133.119935,15.6471034 C130.688458,16.2475063 128.147061,16.5641705 125.5,16.5641705 C119.329285,16.5641705 113.833383,14.866251 109.059228,11.9757985 L109.836096,10.6926475 L110.907454,11.7425007 C110.193566,12.4710119 109.422897,13.1345411 108.593254,13.7232847 C100.930765,19.1608561 87.6522139,22.5 72.1075987,22.5 C60.6218985,22.5 50.4363957,19.5675233 41.6289968,14.6009939 L43.2002519,14.5408743 C38.589213,17.6278379 33.3415574,19.4180966 27.5,19.4180966 C19.5782134,19.4180966 12.8317314,17.0323575 8.34514961,13.0852537 C7.88654729,12.6817949 7.44772687,12.2473014 7.02814511,11.7855042 L8.13833501,10.7768029 L7.91597405,12.2602299 C7.12648984,12.1418887 6.36303092,11.9806991 5.62883285,11.7789352 C4.00240727,9.30282116 2.61477591,7.1396377 1.62420772,5.58010284 C2.05703942,5.29713265 2.63318666,5.22895942 3.18550975,5.54999861 C4.63602373,6.39311349 6.38616204,6.99739962 8.36069596,7.29337593 C8.70249211,7.34461008 9.01611021,7.51230292 9.24852491,7.76810157 C9.59488412,8.14930906 9.95445651,8.50533591 10.3267254,8.83284224 C14.248054,12.2826603 20.2867203,14.4180966 27.5,14.4180966 C32.7084524,14.4180966 37.3884249,12.8215053 41.531312,10.0479564 C42.0017522,9.73300967 42.6094365,9.70975834 43.1025672,9.98783677 C51.47939,14.7115625 61.164595,17.5 72.1075987,17.5 C87.0795493,17.5 99.763914,14.3102755 106.857082,9.27671438 C107.537315,8.79399719 108.172792,8.24686567 108.764738,7.64279424 C109.252018,7.14553354 110.017402,7.04892068 110.612964,7.40949649 C114.940215,10.0293767 119.908104,11.5641705 125.5,11.5641705 C129.205653,11.5641705 132.663282,10.8832896 135.872008,9.63590388 C136.397901,9.43146435 136.902985,9.53345578 137.280359,9.80511077 L137.280359,9.80511077 Z" id="Grass-Shadow" fill="#A39180" opacity="0.597831157"></path>
                        <g id="Rock-Lines" transform="translate(16.000000, 16.000000)">
                            <path d="M36.5,41.5 L50.5,22.5" id="Line"></path>
                            <path d="M56.5,8.5 L65.5,18.5" id="Line"></path>
                            <path d="M91.5,2.5 L78.5,27.5" id="Line"></path>
                            <path d="M99.5,0.5 L91.5,11.5" id="Line"></path>
                            <path d="M110.5,4.5 L103.5,13.5" id="Line"></path>
                            <path d="M39.5,27.5 L43.5,22.5" id="Line"></path>
                            <path d="M33.5,18.5 L28.5,12.5" id="Line"></path>
                            <path d="M37.5,10.5 L38.5,5.5" id="Line"></path>
                            <path d="M10.5,11.5 L8.5,8.5" id="Line"></path>
                            <path d="M10.5,18.5 L0.5,5.5" id="Line"></path>
                            <path d="M61.5,38.5 L65.5,32.5" id="Line"></path>
                            <path d="M58.5,40.5 L60.5,36.5" id="Line"></path>
                        </g>
                    </g>
                    <path d="M154.764686,74 C155.540972,72.9568882 156,71.6638406 156,70.263453 C156,66.8112822 153.194688,64 149.734161,64 L10.2658391,64 C6.80089383,64 4,66.8042434 4,70.263453 C4,72.1725453 4.85792721,73.8856395 6.21014985,75.0356711 C6.5735235,75.5226107 7.0189391,76.035717 7.54667868,76.4999998 C9.25919811,78.0066016 11.8232719,79.2798856 15.138335,79.7768029 C15.5052448,80.1806286 15.9044279,80.5794242 16.3359375,80.959048 C20.0986933,84.2693604 26.2760455,86.9180966 34.5,86.9180966 C40.6813648,86.9180966 45.670839,84.7680779 49.365782,82.2944154 C56.4048157,86.2637561 66.4044146,90 79.1075987,90 C95.2739738,90 107.845755,86.3818727 114.725168,81.4999995 C115.513509,80.940565 116.214873,80.3265957 116.836096,79.6926475 C120.598036,81.970267 125.861713,84.0641705 132.5,84.0641705 C147.053475,84.0641705 155,74 155,74 L154.764686,74 L154.764686,74 Z" id="Grass" stroke="#84AA58" stroke-width="2" fill="#B8E986"></path>
                    <g id="Trees" stroke-width="2">
                        <g id="Tree">
                            <rect id="Rectangle-5" stroke="#A18873" fill="#C0A791" x="21.172381" y="45.6718266" width="4.7447619" height="18.3281734"></rect>
                            <ellipse id="Oval-29" stroke="#859B6C" fill="#ABCC85" cx="23.5" cy="23.5294118" rx="23.5" ry="23.5294118"></ellipse>
                        </g>
                        <g id="Tree" transform="translate(50.000000, 7.000000)">
                            <rect id="Rectangle-5" stroke="#A18873" fill="#C0A791" x="18.92" y="40.6764706" width="4.24" height="16.3235294"></rect>
                            <ellipse id="Oval-29" stroke="#859B6C" fill="#ABCC85" cx="21" cy="20.9558824" rx="21" ry="20.9558824"></ellipse>
                        </g>
                        <g id="Tree" transform="translate(121.000000, 0.000000)">
                            <rect id="Rectangle-5" stroke="#A18873" fill="#C0A791" x="21.172381" y="45.6718266" width="4.7447619" height="18.3281734"></rect>
                            <ellipse id="Oval-29" stroke="#859B6C" fill="#ABCC85" cx="23.5" cy="23.5294118" rx="23.5" ry="23.5294118"></ellipse>
                        </g>
                        <g id="Tree" transform="translate(116.000000, 20.000000)">
                            <rect id="Rectangle-5" stroke="#A18873" fill="#C0A791" x="13.592381" y="31.3993808" width="4.87619048" height="12.6006192"></rect>
                            <ellipse id="Oval-29" stroke="#859B6C" fill="#ABCC85" cx="16" cy="16.1764706" rx="16" ry="16.1764706"></ellipse>
                        </g>
                        <g id="Tree" transform="translate(31.000000, 30.000000)">
                            <rect id="Rectangle-5" stroke="#A18873" fill="#C0A791" x="10.6190476" y="24.2631579" width="3.80952381" height="9.73684211"></rect>
                            <circle id="Oval-29" stroke="#859B6C" fill="#ABCC85" cx="12.5" cy="12.5" r="12.5"></circle>
                        </g>
                    </g>
                    <g id="Rocks" transform="translate(100.000000, 58.500000) scale(-1, 1) translate(-100.000000, -58.500000) translate(68.000000, 52.000000)" stroke="#ADAFAB" stroke-width="2" fill="#CBD0C6">
                        <path d="M63.6980592,8.30230686 C63.6980592,3.71706939 59.0646409,0 53.3490296,0 C47.6334184,0 43,3.71706939 43,8.30230686 C43,12.8875443 47.6334184,12.0399665 53.3490296,12.0399665 C59.0646409,12.0399665 63.6980592,12.8875443 63.6980592,8.30230686 Z" id="Oval-1"></path>
                        <path d="M42.5,12.0682461 C44.9852814,12.0682461 47,12.5276486 47,10.0423672 C47,7.55708582 44.9852814,5.5423672 42.5,5.5423672 C40.0147186,5.5423672 38,7.55708582 38,10.0423672 C38,12.5276486 40.0147186,12.0682461 42.5,12.0682461 Z" id="Oval-1"></path>
                        <path d="M35.3045294,9 C37.2258428,9 38.7833751,9.9526988 38.7833751,11.1279123 C38.7833751,12.3031259 37.2258428,12.0858885 35.3045294,12.0858885 C33.9482856,12.0858885 32.773309,12.1941349 32.1994867,11.8444401 C31.3954354,12.2058717 29.9283511,12.080786 28.2518009,12.080786 C25.7110516,12.080786 23.6513674,12.3680612 23.6513674,10.8139562 C23.6513674,9.25985109 25.7110516,8 28.2518009,8 C30.2215371,8 31.9021412,8.75720192 32.5580565,9.8216864 C33.1946153,9.32164129 34.1881641,9 35.3045294,9 Z" id="Combined-Shape"></path>
                        <path d="M53.9882812,10.5 C53.9882812,8.56700338 51.7523283,7 48.9941406,7 C46.2359529,7 44,8.56700338 44,10.5 C44,12.4329966 46.2359529,12.0756836 48.9941406,12.0756836 C51.7523283,12.0756836 53.9882812,12.4329966 53.9882812,10.5 Z" id="Oval-1"></path>
                        <path d="M20.6710826,8.95682207 C20.6710826,5.16147285 16.715276,2.0847344 11.8355413,2.0847344 C6.95580658,2.0847344 3,5.16147285 3,8.95682207 C3,12.7521713 6.95580658,12.0506037 11.8355413,12.0506037 C16.715276,12.0506037 20.6710826,12.7521713 20.6710826,8.95682207 Z" id="Oval-1"></path>
                        <path d="M20.1279123,12.080786 C21.6820174,12.080786 22.9418685,12.3680612 22.9418685,10.8139562 C22.9418685,9.25985109 21.6820174,8 20.1279123,8 C18.5738073,8 17.3139562,9.25985109 17.3139562,10.8139562 C17.3139562,12.3680612 18.5738073,12.080786 20.1279123,12.080786 Z" id="Oval-1"></path>
                        <path d="M17.1154372,10.5 C17.1154372,8.56700338 15.0949937,7 12.6026503,7 C10.1103069,7 8.08986341,8.56700338 8.08986341,10.5 C8.08986341,12.4329966 10.1103069,12.0756836 12.6026503,12.0756836 C15.0949937,12.0756836 17.1154372,12.4329966 17.1154372,10.5 Z" id="Oval-1"></path>
                        <path d="M2.12791233,12.0858885 C3.30312585,12.0858885 4.25582465,12.3031259 4.25582465,11.1279123 C4.25582465,9.9526988 3.30312585,9 2.12791233,9 C0.952698799,9 0,9.9526988 0,11.1279123 C0,12.3031259 0.952698799,12.0858885 2.12791233,12.0858885 Z" id="Oval-1"></path>
                        <path d="M56.1161936,12.0858885 C57.2914071,12.0858885 58.2441059,12.3031259 58.2441059,11.1279123 C58.2441059,9.9526988 57.2914071,9 56.1161936,9 C54.94098,9 53.9882812,9.9526988 53.9882812,11.1279123 C53.9882812,12.3031259 54.94098,12.0858885 56.1161936,12.0858885 Z" id="Oval-1"></path>
                    </g>
                    <g id="Grass-Tufts" transform="translate(86.000000, 62.500000) scale(-1, 1) translate(-86.000000, -62.500000) translate(31.000000, 60.000000)" stroke="#84AA58" stroke-width="2">
                        <polyline id="Path-19" transform="translate(80.668617, 2.416177) rotate(27.000000) translate(-80.668617, -2.416177) " points="78.9759533 1.76748639 80.7762071 4.00403837 82.3612803 0.828316385"></polyline>
                        <polyline id="----------------" transform="translate(1.925626, 2.741324) scale(-1, 1) rotate(-14.000000) translate(-1.925626, -2.741324) " points="0.317479435 1.83576413 1.81531234 3.64688305 3.53377229 1.83576413"></polyline>
                        <g id="Tufts" transform="translate(106.000000, 2.500000) scale(-1, 1) translate(-106.000000, -2.500000) translate(102.000000, 0.000000)">
                            <polyline id="Path-19" transform="translate(5.233854, 2.311448) rotate(20.000000) translate(-5.233854, -2.311448) " points="6.68990682 1.54421742 5.14130361 4.18946903 3.77780181 0.433426801"></polyline>
                            <path d="M3.69824219,3.14160156 L1,2" id="Path-21"></path>
                        </g>
                    </g>
                </g>
                <g id="Small-Island">
                    <g id="Rocks" transform="translate(4.000000, 62.000000)" stroke="#A39180">
                        <path d="M44,46 C50.4743164,46 77,-7.10542736e-15 77,-7.10542736e-15 L11,-7.10542736e-15 C11,-7.10542736e-15 37.5256836,46 44,46 Z" id="Back-Rock" stroke-width="2" fill="#C3A68B"></path>
                        <path d="M54.9565217,42.8787879 C56.9099057,42.8787879 64.9130435,29 64.9130435,29 L45,29 C45,29 53.0031377,42.8787879 54.9565217,42.8787879 Z" id="Triangle-1" stroke-width="2" fill="#C3A68B"></path>
                        <path d="M57.8012987,9.79574784 C55.0338322,14.0154438 52.1050052,18 50.9130435,18 C48.3796153,18 38,0 38,0 L51,0 L57.4130435,0 L63.826087,0 L93.9,0 C93.9,0 76.6583057,26 72.45,26 C69.9968923,26 63.1150872,17.1652958 57.8012987,9.79574784 L57.8012987,9.79574784 Z" id="Combined-Shape" stroke-width="2" fill="#C3A68B"></path>
                        <path d="M17.2173913,26 C20.5952955,26 34.4347826,2 34.4347826,2 L0,2 C0,2 13.8394871,26 17.2173913,26 Z" id="Triangle-1" stroke-width="2" fill="#C3A68B"></path>
                        <g id="Rock-Lines" transform="translate(9.000000, 7.000000)">
                            <path d="M24.5,21.5 L33.5,33.5" id="Line"></path>
                            <path d="M33.5,26.5 L35.5,29.5" id="Line"></path>
                            <path d="M43.5,28.5 L46.5,32.5" id="Line"></path>
                            <path d="M26.5,3.5 L36.5,16.5" id="Line"></path>
                            <path d="M48.5,10.5 L51.5,14.5" id="Line"></path>
                            <path d="M39.5,3.5 L41.5,6.5" id="Line"></path>
                            <path d="M59.5,10.5 L63.5,15.5" id="Line"></path>
                            <path d="M55.5,0.5 L63.5,9.5" id="Line"></path>
                            <path d="M11.5,4.5 L8.5,15.5" id="Line"></path>
                            <path d="M0.5,3.5 L3.5,8.5" id="Line"></path>
                        </g>
                    </g>
                    <g id="Shadow" transform="translate(4.000000, 62.000000)" stroke="#A39180" fill="#A39180" opacity="0.597831157">
                        <path d="M63.6055959,21.9491247 C64.1396586,21.1183599 64.6685626,20.289427 65.1901067,19.4666738 C62.7627266,16.5402093 60.131277,13.0271311 57.8012987,9.79574784 C55.0338322,14.0154438 52.1050052,18 50.9130435,18 C48.6319137,18 39.9895482,3.40663912 38.2908249,0.5 L38,0.5 C36.845652,0.5 36.1239202,1.74931305 36.7005654,2.74931284 C36.783476,2.89309384 36.938638,3.15999923 37.1571779,3.53249014 C37.5205579,4.15185427 37.9295225,4.84164144 38.3752187,5.58434101 C39.6491205,7.70714626 40.9631045,9.83034808 42.2471077,11.8148409 C42.6700555,12.4685285 43.0836945,13.0976077 43.4865691,13.6991458 C47.0429795,19.0092753 49.1182745,21.5 50.9130435,21.5 C52.8038766,21.5 55.1018852,18.6468114 59.0556035,12.6183774 L56.5846014,12.6730435 C59.2227171,16.331774 61.5579122,19.4386868 63.6055959,21.9491247 L63.6055959,21.9491247 Z" id="Combined-Shape"></path>
                        <path d="M23.0894567,19.9071718 C23.5782859,20.6764846 24.0731765,21.4504993 24.5723425,22.2256881 C24.729735,22.1245401 24.8718721,21.9907917 24.9889059,21.8242275 C25.5391802,21.0410689 26.1115589,20.2050941 26.7039223,19.3206274 C27.2395639,18.520853 27.7896382,17.6842775 28.3521795,16.8148409 C30.0607885,14.1740981 31.8099148,11.3477713 33.505764,8.52184101 C34.0991418,7.53304769 34.6435899,6.61474489 35.127289,5.79030264 C35.2967647,5.50143941 35.4466041,5.24483222 35.5753278,5.02340522 C35.652866,4.89002601 35.7059242,4.79837495 35.7342172,4.74931284 C36.3108624,3.74931305 35.5891306,2.5 34.4347826,2.5 L34.1443245,2.5 C32.8595711,4.70274128 27.5537598,13.7066805 23.0894567,19.9071718 L23.0894567,19.9071718 Z" id="Combined-Shape"></path>
                        <path d="M93.5106118,0.582694788 C92.9579494,1.40626108 91.8516924,3.04310506 90.4166768,5.10705216 L90.4166768,5.10705217 C86.4255383,6.66058992 81.8321058,7.57548296 76.6677632,7.57548296 C70.6509936,7.57548296 65.4209266,6.33635376 61.0277743,4.30323786 L62.0894151,4.16271365 C57.9901335,7.59201863 53.1683937,9.65384615 47.6677632,9.65384615 C41.1384409,9.65384615 35.5873117,7.53881546 31.9094938,4.05269058 C31.8939615,4.03795144 31.8939615,4.03795144 31.8784751,4.02319028 L32.568829,3.29971844 L33.1656342,4.10210453 C28.5931395,7.50307199 22.9586597,9.65384615 16.3322368,9.65384615 C11.1724537,9.65384615 6.60270003,8.70451742 2.98560925,7.02747288 C1.48207603,4.54665507 0.391134681,2.67460912 0.086183655,2.14887971 C0.20584421,2.24154736 0.328654263,2.33307099 0.454615543,2.42307669 C3.74372617,4.77331239 9.14349067,6.65384615 16.3322368,6.65384615 C23.8310883,6.65384615 29.3232295,3.71375693 32.568829,1.29971844 C32.5783447,1.3087986 32.5878796,1.31786679 32.5974335,1.32692278 C35.7193106,4.28608319 40.8445261,6.65384615 47.6677632,6.65384615 C53.6531384,6.65384615 58.2915973,4.0360475 61.4477702,1.39571182 C64.7703314,2.93336669 69.902368,4.57548296 76.6677632,4.57548296 C84.6556534,4.57548296 90.3665629,2.28629345 93.5106118,0.582694788 L93.5106118,0.582694788 Z" id="Combined-Shape"></path>
                        <path d="M62.7954316,32.5497706 C61.8664839,33.0374674 60.7366735,33.345997 59.4243421,33.345997 C56.7704345,33.345997 54.8859994,31.5330819 53.8706763,30.2229417 C52.8824803,31.0093699 51.2622954,31.925157 49.0756579,31.925157 C48.0831468,31.925157 47.2073383,31.7364832 46.4543611,31.4568711 C47.1340209,32.5850949 47.9955019,33.9896572 48.9138528,35.4237515 C48.9676635,35.4246876 49.0215989,35.425157 49.0756579,35.425157 C51.3203326,35.425157 53.2403176,34.6416237 54.8047258,33.3966331 L52.6850381,33.1417791 C54.4049361,35.36108 56.6425837,36.845997 59.4243421,36.845997 C59.6486995,36.845997 59.8706053,36.8383503 60.0898754,36.8231696 C61.0532556,35.3637492 61.9996418,33.851318 62.7954316,32.5497706 Z" id="Combined-Shape"></path>
                    </g>
                    <path d="M98.3851001,62.0869755 C99.1082701,61.8784603 99.7405485,61.4486342 100.20215,60.875236 C100.290866,60.8065614 100.335526,60.7692308 100.335526,60.7692308 L100.284318,60.7692308 C100.733295,60.1674355 101,59.4214465 101,58.6135306 C101,56.6218936 99.3839634,55 97.3904813,55 L3.60951873,55 C1.62737725,55 0,56.6178327 0,58.6135306 C0,59.861224 0.634229713,60.9638079 1.59816549,61.613425 C2.22923311,62.447407 3.18078625,63.5128613 4.45461554,64.4230767 C7.74372617,66.7733124 13.1434907,68.6538462 20.3322368,68.6538462 C27.8310883,68.6538462 33.3232295,65.7137569 36.568829,63.2997184 C36.5783447,63.3087986 36.5878796,63.3178668 36.5974335,63.3269228 C39.7193106,66.2860832 44.8445261,68.6538462 51.6677632,68.6538462 C57.6531384,68.6538462 62.2915973,66.0360475 65.4477702,63.3957118 C68.7703314,64.9333667 73.902368,66.575483 80.6677632,66.575483 C89.4631347,66.575483 95.4979058,63.8000806 98.3851001,62.0869755 L98.3851001,62.0869755 Z" id="Grass" stroke="#84AA58" stroke-width="2" fill="#B8E986"></path>
                    <path d="M47.2606538,91.1126761 C47.0969643,90.8923003 47,90.6191213 47,90.3232647 C47,89.5873507 47.5906209,89 48.3191888,89 L68.6808112,89 C69.4083444,89 70,89.5924458 70,90.3232647 C70,90.5741938 69.9313316,90.8078502 69.8119405,91.0068389 C69.6944283,91.3308235 69.2948684,92.3375083 68.61066,93.1237026 C67.5362942,94.3582098 65.7724975,95.345997 63.4243421,95.345997 C60.7704345,95.345997 58.8859994,93.5330819 57.8706763,92.2229417 C56.8824803,93.0093699 55.2622954,93.925157 53.0756579,93.925157 C49.2436683,93.925157 47.1513158,91.1126761 47.1513158,91.1126761 L47.2606538,91.1126761 L47.2606538,91.1126761 Z" id="Grass" stroke="#84AA58" stroke-width="2" fill="#B8E986"></path>
                    <g id="trees" transform="translate(4.000000, 0.000000)" stroke-width="2">
                        <g id="Tree" transform="translate(42.000000, 60.000000)">
                            <rect id="Rectangle-5" stroke="#A18873" fill="#C0A791" x="8.92" y="20.6950464" width="3.2" height="8.30495356"></rect>
                            <ellipse id="Oval-29" stroke="#859B6C" fill="#ABCC85" cx="10.5" cy="10.6617647" rx="10.5" ry="10.6617647"></ellipse>
                        </g>
                        <g id="Tree" transform="translate(53.000000, 26.000000)">
                            <rect id="Rectangle-5" stroke="#A18873" fill="#C0A791" x="8.92" y="20.6950464" width="3.2" height="8.30495356"></rect>
                            <ellipse id="Oval-29" stroke="#859B6C" fill="#ABCC85" cx="10.5" cy="10.6617647" rx="10.5" ry="10.6617647"></ellipse>
                        </g>
                        <g id="Tree">
                            <rect id="Rectangle-5" stroke="#A18873" fill="#C0A791" x="18.0333333" y="39.249226" width="4.00952381" height="15.750774"></rect>
                            <ellipse id="Oval-29" stroke="#859B6C" fill="#ABCC85" cx="20" cy="20.2205882" rx="20" ry="20.2205882"></ellipse>
                        </g>
                        <g id="Tree" transform="translate(26.000000, 12.000000)">
                            <rect id="Rectangle-5" stroke="#A18873" fill="#C0A791" x="13.9758333" y="30.6857585" width="3.10738095" height="12.3142415"></rect>
                            <ellipse id="Oval-29" stroke="#859B6C" fill="#ABCC85" cx="15.5" cy="15.8088235" rx="15.5" ry="15.8088235"></ellipse>
                        </g>
                        <g id="Tree" transform="translate(70.000000, 10.000000)">
                            <rect id="Rectangle-5" stroke="#A18873" fill="#C0A791" x="15.0174405" y="32.6857585" width="5.02416667" height="12.3142415"></rect>
                            <ellipse id="Oval-29" stroke="#859B6C" fill="#ABCC85" cx="17.4609302" cy="17.8088235" rx="17.4609302" ry="17.8088235"></ellipse>
                        </g>
                    </g>
                    <g id="Well" transform="translate(70.000000, 29.000000)">
                        <rect id="Rectangle-48" stroke="#ADAFAB" stroke-width="2" fill="#CBD0C6" x="2" y="16" width="10" height="10"></rect>
                        <path d="M3.5,15.5 L3.5,9.97731948" id="Line" stroke="#ADAFAB" stroke-width="2" fill="#CBD0C6"></path>
                        <path d="M10.5,15.5 L10.5,9.97731948" id="Line" stroke="#ADAFAB" stroke-width="2" fill="#CBD0C6"></path>
                        <polygon id="Triangle-116" stroke="#B99595" stroke-width="2" fill="#D8AEAE" points="7 0 14 11 0 11"></polygon>
                        <path d="M2.5,7.5 L11.0146933,7.5" id="Line" stroke="#B99595" fill="#D8AEAE"></path>
                        <path d="M1.98614442,8.5 L12.012475,8.5" id="Line" stroke="#B99595" stroke-width="2" fill="#D8AEAE" opacity="0.6"></path>
                        <path d="M4.9690187,4.5 L9.01920223,4.5" id="Line" stroke="#B99595" fill="#D8AEAE"></path>
                        <path d="M3.97928798,5.5 L10.024785,5.5" id="Line" stroke="#B99595" stroke-width="2" fill="#D8AEAE" opacity="0.6"></path>
                    </g>
                </g>
            </g>
            <g id="Hot-Air-Balloon" transform="translate(78.000000, 397.000000)" stroke-width="2" stroke-linecap="round" stroke-linejoin="round">
                <g id="Back-Lines" transform="translate(10.077670, 44.931866)" stroke="#57595B" fill="#A0BAD9" opacity="0.8">
                    <path d="M0,0 L10.1456311,26.9591199" id="Line"></path>
                    <path d="M25.2330097,0 L34.8446602,26.9591199" id="Line" transform="translate(30.038835, 13.479560) scale(-1, 1) translate(-30.038835, -13.479560) "></path>
                </g>
                <g id="Basket" transform="translate(17.000000, 72.000000)" stroke="#BF8553" fill="#F0B179">
                    <rect id="Rectangle-52" x="0" y="0" width="21" height="15" rx="3"></rect>
                    <path d="M1,4.52861019 L20.7572816,4.52861019" id="Line"></path>
                    <path d="M4.53398058,0 L4.53398058,13.743865" id="Line"></path>
                    <path d="M10.5339806,0 L10.5339806,13.743865" id="Line"></path>
                    <path d="M16.5339806,0 L16.5339806,13.743865" id="Line"></path>
                </g>
                <g id="Balloon" stroke="#814B4B">
                    <path d="M27.5,54.4468499 C42.6878306,54.4468499 55,42.2585074 55,27.223425 C55,12.1883425 42.6878306,0 27.5,0 C12.3121694,0 0,12.1883425 0,27.223425 C0,42.2585074 12.3121694,54.4468499 27.5,54.4468499 Z" id="Oval-39" fill="#C56666"></path>
                    <path d="M27.5,0.264305097 L27.5,53.127966" id="Line" opacity="0.297166511"></path>
                    <path d="M49.8677374,27.223425 C49.8677374,12.1883425 39.8998204,0 27.6037716,0 C15.3077228,0 5.33980583,12.1883425 5.33980583,27.223425 C5.33980583,42.2585074 15.3077228,54.4468499 27.6037716,54.4468499 C39.8998204,54.4468499 49.8677374,42.2585074 49.8677374,27.223425 Z" id="Oval-39" opacity="0.297166511"></path>
                    <path d="M27.4239866,0 C20.8305076,0 15.4854369,12.1883425 15.4854369,27.223425 C15.4854369,42.2585074 20.8305076,54.4468499 27.4239866,54.4468499 C34.0174655,54.4468499 39.3625362,42.2585074 39.3625362,27.223425 C39.3625362,12.1883425 34.0174655,0 27.4239866,0 Z" id="Oval-39" opacity="0.297166511"></path>
                    <rect id="Rectangle-51" fill="#C56666" x="19.7572816" y="53.3896295" width="15.4854369" height="6.87193252" rx="3"></rect>
                    <g id="Group" transform="translate(27.805825, 10.658034) scale(1, -1) translate(-27.805825, -10.658034) translate(3.805825, 6.158034)" fill="#C56666">
                        <path d="M2.19102202,4.643051 L45.1969086,4.643051" id="Line"></path>
                        <path d="M0.192713901,1.52861023 L47.1956596,1.52861023" id="Line"></path>
                        <path d="M5.2683774,7.75749174 L42.1165049,7.75749174" id="Line"></path>
                    </g>
                    <g id="Group" transform="translate(3.805825, 39.288815)" fill="#C56666">
                        <path d="M2.19417475,4.643051 L45.1941735,4.643051" id="Line"></path>
                        <path d="M0.194174752,1.52861023 L47.1941757,1.52861023" id="Line"></path>
                        <path d="M5.2683774,7.75749174 L42.1165049,7.75749174" id="Line"></path>
                    </g>
                </g>
                <g id="Front-Lines" transform="translate(6.407767, 44.931866)" stroke="#57595B" fill="#A0BAD9" opacity="0.8">
                    <path d="M31.7718447,0.264305097 L42.184466,27.4877301" id="Line" transform="translate(36.844660, 13.743865) scale(-1, 1) translate(-36.844660, -13.743865) "></path>
                    <path d="M0.266990291,0.264305097 L11.2135922,27.4877301" id="Line"></path>
                    <path d="M16.0194175,16.0590273 L16.0194175,26.0834006" id="Line"></path>
                    <path d="M26.1650486,16.0590211 L26.1650486,26.0766267" id="Line"></path>
                </g>
            </g>
        </g>
    </g>
</svg>