<?xml version="1.0" encoding="UTF-8" standalone="no"?>
<svg width="417px" height="177px" viewBox="0 0 417 177" version="1.1" xmlns="http://www.w3.org/2000/svg" xmlns:xlink="http://www.w3.org/1999/xlink">
    <!-- Generator: Sketch 3.8.3 (29802) - http://www.bohemiancoding.com/sketch -->
    <title>Island Group 3</title>
    <desc>Created with Sketch.</desc>
    <defs></defs>
    <g id="Page-1" stroke="none" stroke-width="1" fill="none" fill-rule="evenodd" stroke-linecap="round" stroke-linejoin="round">
        <g id="Desktop-Landscape" transform="translate(-309.000000, -346.000000)">
            <g id="Island-Group-3" transform="translate(310.000000, 347.000000)">
                <g id="Large-Island" transform="translate(247.000000, 42.000000)">
                    <g id="Rocks" transform="translate(7.000000, 71.000000)" stroke="#A39180">
                        <path d="M74,59.4242424 C79.6895508,59.4242424 103,19 103,19 L45,19 C45,19 68.3104492,59.4242424 74,59.4242424 Z" id="Triangle-1" stroke-width="2" fill="#C3A68B"></path>
                        <path d="M52,62 C58.4743164,62 85,16 85,16 L19,16 C19,16 45.5256836,62 52,62 Z" id="Back-Rock" stroke-width="2" fill="#C3A68B"></path>
                        <path d="M111,40 C117.474316,40 144,0 144,0 L78,0 C78,0 104.525684,40 111,40 Z" id="Combined-Rocks" stroke-width="2" fill="#C3A68B"></path>
                        <g id="Shadows" transform="translate(30.000000, 3.000000)" fill="#A39180" opacity="0.597831157">
                            <path d="M46.1293625,32.6144108 C44.810376,34.7230955 43.4924887,36.7975231 42.1872472,38.8148409 C41.1128627,40.4753573 40.0625259,42.0727525 39.0400722,43.5993935 C37.8925459,45.3127822 36.7989187,46.9147992 35.7574897,48.4033331 C35.4578022,48.0050561 34.6831576,47.0172626 34.0484045,46.2110991 C37.4700441,41.3845688 41.0993609,35.8053132 44.358891,30.6139517 C44.952077,31.2916277 45.5428244,31.9593634 46.1293625,32.6144108 L46.1293625,32.6144108 Z" id="Combined-Shape"></path>
                            <path d="M55.4031616,44.0260492 C55.1098855,44.4465376 54.8178869,44.8616931 54.5276236,45.2706117 C54.4845288,45.2401834 54.4425651,45.2071653 54.4019282,45.1715336 C48.5678655,40.0560449 40.3850716,30.6738445 30.9327485,18.7421144 L33.3612224,18.6357294 C28.5734564,25.9051645 25.6581901,29.5 23.5,29.5 C21.2646851,29.5 18.1460184,25.5732519 13.0290029,17.7038462 L15.5257613,17.7313154 C10.3974155,25.2508021 5.97450798,31.1585842 2.65896344,34.6837662 C2.57198134,34.7762481 2.47671405,34.8548874 2.37562826,34.9199154 C2.12312327,34.5270609 1.87177776,34.1346276 1.62182453,33.7430752 C1.69974569,33.6670439 1.77837847,33.5894428 1.85772966,33.5102756 L0.798300889,32.4483854 C4.52167822,28.7336386 9.74095136,21.551148 14.2865294,14.88615 C17.9398758,20.504594 21.9176597,26 23.5,26 C24.9953596,26 28.6300476,21.0921499 32.1085117,15.8106742 C39.8409668,25.5714035 49.6240864,37.2526961 56.2600728,42.7877783 L55.2992745,43.9396753 C55.3340001,43.96864 55.3686292,43.9974314 55.4031616,44.0260492 L55.4031616,44.0260492 Z" id="Shadow"></path>
                            <path d="M76.7497024,34.4438591 C77.4327746,35.0606487 78.070796,35.5806045 78.654126,35.9871676 C80.1182145,34.3596877 81.6501496,32.6060917 83.2427164,30.7377531 C84.5439092,29.2112435 85.8806134,27.6139536 87.2479393,25.9535253 C91.4039614,20.906611 95.6608262,15.5021086 99.7883319,10.0979691 C101.232771,8.20676561 102.558017,6.45049962 103.73518,4.87402769 C104.147425,4.32194387 104.511795,3.8316564 104.824678,3.40877509 C105.012805,3.15450944 105.142208,2.97888095 105.209274,2.88750064 C105.936379,1.89677516 105.22891,0.5 104,0.5 L103.63113,0.5 L103.63113,0.5 C101.248428,3.72083442 87.7739702,21.8006962 76.4574374,34.1766121 L76.7497024,34.4438591 L76.7497024,34.4438591 Z" id="Shadow"></path>
                        </g>
                        <path d="M52,3 L134,3 C134,3 100.240039,49 92,49 C87.0084243,49 72.6521002,32.1199158 62.1085117,18.8106742 C58.6300476,24.0921499 54.9953596,29 53.5,29 C51.9176597,29 47.9398758,23.504594 44.2865294,17.88615 C37.7882757,27.4142777 29.9131978,38 27,38 C21.702832,38 0,3 0,3 L52,3 L52,3 Z" id="Combined-Shape" stroke-width="2" fill="#C3A68B"></path>
                        <path d="M137.280359,9.80511077 C136.000983,11.6283847 134.596567,13.6059586 133.119935,15.6471034 C130.688458,16.2475063 128.147061,16.5641705 125.5,16.5641705 C119.329285,16.5641705 113.833383,14.866251 109.059228,11.9757985 L109.836096,10.6926475 L110.907454,11.7425007 C110.193566,12.4710119 109.422897,13.1345411 108.593254,13.7232847 C100.930765,19.1608561 87.6522139,22.5 72.1075987,22.5 C60.6218985,22.5 50.4363957,19.5675233 41.6289968,14.6009939 L43.2002519,14.5408743 C38.589213,17.6278379 33.3415574,19.4180966 27.5,19.4180966 C19.5782134,19.4180966 12.8317314,17.0323575 8.34514961,13.0852537 C7.88654729,12.6817949 7.44772687,12.2473014 7.02814511,11.7855042 L8.13833501,10.7768029 L7.91597405,12.2602299 C7.12648984,12.1418887 6.36303092,11.9806991 5.62883285,11.7789352 C4.00240727,9.30282116 2.61477591,7.1396377 1.62420772,5.58010284 C2.05703942,5.29713265 2.63318666,5.22895942 3.18550975,5.54999861 C4.63602373,6.39311349 6.38616204,6.99739962 8.36069596,7.29337593 C8.70249211,7.34461008 9.01611021,7.51230292 9.24852491,7.76810157 C9.59488412,8.14930906 9.95445651,8.50533591 10.3267254,8.83284224 C14.248054,12.2826603 20.2867203,14.4180966 27.5,14.4180966 C32.7084524,14.4180966 37.3884249,12.8215053 41.531312,10.0479564 C42.0017522,9.73300967 42.6094365,9.70975834 43.1025672,9.98783677 C51.47939,14.7115625 61.164595,17.5 72.1075987,17.5 C87.0795493,17.5 99.763914,14.3102755 106.857082,9.27671438 C107.537315,8.79399719 108.172792,8.24686567 108.764738,7.64279424 C109.252018,7.14553354 110.017402,7.04892068 110.612964,7.40949649 C114.940215,10.0293767 119.908104,11.5641705 125.5,11.5641705 C129.205653,11.5641705 132.663282,10.8832896 135.872008,9.63590388 C136.397901,9.43146435 136.902985,9.53345578 137.280359,9.80511077 L137.280359,9.80511077 Z" id="Grass-Shadow" fill="#A39180" opacity="0.597831157"></path>
                        <g id="Rock-Lines" transform="translate(16.000000, 16.000000)">
                            <path d="M36.5,41.5 L50.5,22.5" id="Line"></path>
                            <path d="M56.5,8.5 L65.5,18.5" id="Line"></path>
                            <path d="M91.5,2.5 L78.5,27.5" id="Line"></path>
                            <path d="M99.5,0.5 L91.5,11.5" id="Line"></path>
                            <path d="M110.5,4.5 L103.5,13.5" id="Line"></path>
                            <path d="M39.5,27.5 L43.5,22.5" id="Line"></path>
                            <path d="M33.5,18.5 L28.5,12.5" id="Line"></path>
                            <path d="M37.5,10.5 L38.5,5.5" id="Line"></path>
                            <path d="M10.5,11.5 L8.5,8.5" id="Line"></path>
                            <path d="M10.5,18.5 L0.5,5.5" id="Line"></path>
                            <path d="M61.5,38.5 L65.5,32.5" id="Line"></path>
                            <path d="M58.5,40.5 L60.5,36.5" id="Line"></path>
                        </g>
                    </g>
                    <path d="M154.764686,74 C155.540972,72.9568882 156,71.6638406 156,70.263453 C156,66.8112822 153.194688,64 149.734161,64 L10.2658391,64 C6.80089383,64 4,66.8042434 4,70.263453 C4,72.1725453 4.85792721,73.8856395 6.21014985,75.0356711 C6.5735235,75.5226107 7.0189391,76.035717 7.54667868,76.4999998 C9.25919811,78.0066016 11.8232719,79.2798856 15.138335,79.7768029 C15.5052448,80.1806286 15.9044279,80.5794242 16.3359375,80.959048 C20.0986933,84.2693604 26.2760455,86.9180966 34.5,86.9180966 C40.6813648,86.9180966 45.670839,84.7680779 49.365782,82.2944154 C56.4048157,86.2637561 66.4044146,90 79.1075987,90 C95.2739738,90 107.845755,86.3818727 114.725168,81.4999995 C115.513509,80.940565 116.214873,80.3265957 116.836096,79.6926475 C120.598036,81.970267 125.861713,84.0641705 132.5,84.0641705 C147.053475,84.0641705 155,74 155,74 L154.764686,74 L154.764686,74 Z" id="Grass" stroke="#84AA58" stroke-width="2" fill="#B8E986"></path>
                    <g id="Trees" stroke-width="2">
                        <g id="Tree">
                            <rect id="Rectangle-5" stroke="#A18873" fill="#C0A791" x="21.172381" y="45.6718266" width="4.7447619" height="18.3281734"></rect>
                            <ellipse id="Oval-29" stroke="#859B6C" fill="#ABCC85" cx="23.5" cy="23.5294118" rx="23.5" ry="23.5294118"></ellipse>
                        </g>
                        <g id="Tree" transform="translate(50.000000, 7.000000)">
                            <rect id="Rectangle-5" stroke="#A18873" fill="#C0A791" x="18.92" y="40.6764706" width="4.24" height="16.3235294"></rect>
                            <ellipse id="Oval-29" stroke="#859B6C" fill="#ABCC85" cx="21" cy="20.9558824" rx="21" ry="20.9558824"></ellipse>
                        </g>
                        <g id="Tree" transform="translate(121.000000, 0.000000)">
                            <rect id="Rectangle-5" stroke="#A18873" fill="#C0A791" x="21.172381" y="45.6718266" width="4.7447619" height="18.3281734"></rect>
                            <ellipse id="Oval-29" stroke="#859B6C" fill="#ABCC85" cx="23.5" cy="23.5294118" rx="23.5" ry="23.5294118"></ellipse>
                        </g>
                        <g id="Tree" transform="translate(116.000000, 20.000000)">
                            <rect id="Rectangle-5" stroke="#A18873" fill="#C0A791" x="13.592381" y="31.3993808" width="4.87619048" height="12.6006192"></rect>
                            <ellipse id="Oval-29" stroke="#859B6C" fill="#ABCC85" cx="16" cy="16.1764706" rx="16" ry="16.1764706"></ellipse>
                        </g>
                        <g id="Tree" transform="translate(31.000000, 30.000000)">
                            <rect id="Rectangle-5" stroke="#A18873" fill="#C0A791" x="10.6190476" y="24.2631579" width="3.80952381" height="9.73684211"></rect>
                            <circle id="Oval-29" stroke="#859B6C" fill="#ABCC85" cx="12.5" cy="12.5" r="12.5"></circle>
                        </g>
                    </g>
                    <g id="Rocks" transform="translate(100.000000, 58.500000) scale(-1, 1) translate(-100.000000, -58.500000) translate(68.000000, 52.000000)" stroke="#ADAFAB" stroke-width="2" fill="#CBD0C6">
                        <path d="M63.6980592,8.30230686 C63.6980592,3.71706939 59.0646409,0 53.3490296,0 C47.6334184,0 43,3.71706939 43,8.30230686 C43,12.8875443 47.6334184,12.0399665 53.3490296,12.0399665 C59.0646409,12.0399665 63.6980592,12.8875443 63.6980592,8.30230686 Z" id="Oval-1"></path>
                        <path d="M42.5,12.0682461 C44.9852814,12.0682461 47,12.5276486 47,10.0423672 C47,7.55708582 44.9852814,5.5423672 42.5,5.5423672 C40.0147186,5.5423672 38,7.55708582 38,10.0423672 C38,12.5276486 40.0147186,12.0682461 42.5,12.0682461 Z" id="Oval-1"></path>
                        <path d="M35.3045294,9 C37.2258428,9 38.7833751,9.9526988 38.7833751,11.1279123 C38.7833751,12.3031259 37.2258428,12.0858885 35.3045294,12.0858885 C33.9482856,12.0858885 32.773309,12.1941349 32.1994867,11.8444401 C31.3954354,12.2058717 29.9283511,12.080786 28.2518009,12.080786 C25.7110516,12.080786 23.6513674,12.3680612 23.6513674,10.8139562 C23.6513674,9.25985109 25.7110516,8 28.2518009,8 C30.2215371,8 31.9021412,8.75720192 32.5580565,9.8216864 C33.1946153,9.32164129 34.1881641,9 35.3045294,9 Z" id="Combined-Shape"></path>
                        <path d="M53.9882812,10.5 C53.9882812,8.56700338 51.7523283,7 48.9941406,7 C46.2359529,7 44,8.56700338 44,10.5 C44,12.4329966 46.2359529,12.0756836 48.9941406,12.0756836 C51.7523283,12.0756836 53.9882812,12.4329966 53.9882812,10.5 Z" id="Oval-1"></path>
                        <path d="M20.6710826,8.95682207 C20.6710826,5.16147285 16.715276,2.0847344 11.8355413,2.0847344 C6.95580658,2.0847344 3,5.16147285 3,8.95682207 C3,12.7521713 6.95580658,12.0506037 11.8355413,12.0506037 C16.715276,12.0506037 20.6710826,12.7521713 20.6710826,8.95682207 Z" id="Oval-1"></path>
                        <path d="M20.1279123,12.080786 C21.6820174,12.080786 22.9418685,12.3680612 22.9418685,10.8139562 C22.9418685,9.25985109 21.6820174,8 20.1279123,8 C18.5738073,8 17.3139562,9.25985109 17.3139562,10.8139562 C17.3139562,12.3680612 18.5738073,12.080786 20.1279123,12.080786 Z" id="Oval-1"></path>
                        <path d="M17.1154372,10.5 C17.1154372,8.56700338 15.0949937,7 12.6026503,7 C10.1103069,7 8.08986341,8.56700338 8.08986341,10.5 C8.08986341,12.4329966 10.1103069,12.0756836 12.6026503,12.0756836 C15.0949937,12.0756836 17.1154372,12.4329966 17.1154372,10.5 Z" id="Oval-1"></path>
                        <path d="M2.12791233,12.0858885 C3.30312585,12.0858885 4.25582465,12.3031259 4.25582465,11.1279123 C4.25582465,9.9526988 3.30312585,9 2.12791233,9 C0.952698799,9 0,9.9526988 0,11.1279123 C0,12.3031259 0.952698799,12.0858885 2.12791233,12.0858885 Z" id="Oval-1"></path>
                        <path d="M56.1161936,12.0858885 C57.2914071,12.0858885 58.2441059,12.3031259 58.2441059,11.1279123 C58.2441059,9.9526988 57.2914071,9 56.1161936,9 C54.94098,9 53.9882812,9.9526988 53.9882812,11.1279123 C53.9882812,12.3031259 54.94098,12.0858885 56.1161936,12.0858885 Z" id="Oval-1"></path>
                    </g>
                    <g id="Grass-Tufts" transform="translate(86.000000, 62.500000) scale(-1, 1) translate(-86.000000, -62.500000) translate(31.000000, 60.000000)" stroke="#84AA58" stroke-width="2">
                        <polyline id="Path-19" transform="translate(80.668617, 2.416177) rotate(27.000000) translate(-80.668617, -2.416177) " points="78.9759533 1.76748639 80.7762071 4.00403837 82.3612803 0.828316385"></polyline>
                        <polyline id="----------------" transform="translate(1.925626, 2.741324) scale(-1, 1) rotate(-14.000000) translate(-1.925626, -2.741324) " points="0.317479435 1.83576413 1.81531234 3.64688305 3.53377229 1.83576413"></polyline>
                        <g id="Tufts" transform="translate(106.000000, 2.500000) scale(-1, 1) translate(-106.000000, -2.500000) translate(102.000000, 0.000000)">
                            <polyline id="Path-19" transform="translate(5.233854, 2.311448) rotate(20.000000) translate(-5.233854, -2.311448) " points="6.68990682 1.54421742 5.14130361 4.18946903 3.77780181 0.433426801"></polyline>
                            <path d="M3.69824219,3.14160156 L1,2" id="Path-21"></path>
                        </g>
                    </g>
                </g>
                <g id="Small-Island">
                    <g id="Rocks" transform="translate(4.000000, 62.000000)" stroke="#A39180">
                        <path d="M44,46 C50.4743164,46 77,-7.10542736e-15 77,-7.10542736e-15 L11,-7.10542736e-15 C11,-7.10542736e-15 37.5256836,46 44,46 Z" id="Back-Rock" stroke-width="2" fill="#C3A68B"></path>
                        <path d="M54.9565217,42.8787879 C56.9099057,42.8787879 64.9130435,29 64.9130435,29 L45,29 C45,29 53.0031377,42.8787879 54.9565217,42.8787879 Z" id="Triangle-1" stroke-width="2" fill="#C3A68B"></path>
                        <path d="M57.8012987,9.79574784 C55.0338322,14.0154438 52.1050052,18 50.9130435,18 C48.3796153,18 38,0 38,0 L51,0 L57.4130435,0 L63.826087,0 L93.9,0 C93.9,0 76.6583057,26 72.45,26 C69.9968923,26 63.1150872,17.1652958 57.8012987,9.79574784 L57.8012987,9.79574784 Z" id="Combined-Shape" stroke-width="2" fill="#C3A68B"></path>
                        <path d="M17.2173913,26 C20.5952955,26 34.4347826,2 34.4347826,2 L0,2 C0,2 13.8394871,26 17.2173913,26 Z" id="Triangle-1" stroke-width="2" fill="#C3A68B"></path>
                        <g id="Rock-Lines" transform="translate(9.000000, 7.000000)">
                            <path d="M24.5,21.5 L33.5,33.5" id="Line"></path>
                            <path d="M33.5,26.5 L35.5,29.5" id="Line"></path>
                            <path d="M43.5,28.5 L46.5,32.5" id="Line"></path>
                            <path d="M26.5,3.5 L36.5,16.5" id="Line"></path>
                            <path d="M48.5,10.5 L51.5,14.5" id="Line"></path>
                            <path d="M39.5,3.5 L41.5,6.5" id="Line"></path>
                            <path d="M59.5,10.5 L63.5,15.5" id="Line"></path>
                            <path d="M55.5,0.5 L63.5,9.5" id="Line"></path>
                            <path d="M11.5,4.5 L8.5,15.5" id="Line"></path>
                            <path d="M0.5,3.5 L3.5,8.5" id="Line"></path>
                        </g>
                    </g>
                    <g id="Shadow" transform="translate(4.000000, 62.000000)" stroke="#A39180" fill="#A39180" opacity="0.597831157">
                        <path d="M63.6055959,21.9491247 C64.1396586,21.1183599 64.6685626,20.289427 65.1901067,19.4666738 C62.7627266,16.5402093 60.131277,13.0271311 57.8012987,9.79574784 C55.0338322,14.0154438 52.1050052,18 50.9130435,18 C48.6319137,18 39.9895482,3.40663912 38.2908249,0.5 L38,0.5 C36.845652,0.5 36.1239202,1.74931305 36.7005654,2.74931284 C36.783476,2.89309384 36.938638,3.15999923 37.1571779,3.53249014 C37.5205579,4.15185427 37.9295225,4.84164144 38.3752187,5.58434101 C39.6491205,7.70714626 40.9631045,9.83034808 42.2471077,11.8148409 C42.6700555,12.4685285 43.0836945,13.0976077 43.4865691,13.6991458 C47.0429795,19.0092753 49.1182745,21.5 50.9130435,21.5 C52.8038766,21.5 55.1018852,18.6468114 59.0556035,12.6183774 L56.5846014,12.6730435 C59.2227171,16.331774 61.5579122,19.4386868 63.6055959,21.9491247 L63.6055959,21.9491247 Z" id="Combined-Shape"></path>
                        <path d="M23.0894567,19.9071718 C23.5782859,20.6764846 24.0731765,21.4504993 24.5723425,22.2256881 C24.729735,22.1245401 24.8718721,21.9907917 24.9889059,21.8242275 C25.5391802,21.0410689 26.1115589,20.2050941 26.7039223,19.3206274 C27.2395639,18.520853 27.7896382,17.6842775 28.3521795,16.8148409 C30.0607885,14.1740981 31.8099148,11.3477713 33.505764,8.52184101 C34.0991418,7.53304769 34.6435899,6.61474489 35.127289,5.79030264 C35.2967647,5.50143941 35.4466041,5.24483222 35.5753278,5.02340522 C35.652866,4.89002601 35.7059242,4.79837495 35.7342172,4.74931284 C36.3108624,3.74931305 35.5891306,2.5 34.4347826,2.5 L34.1443245,2.5 C32.8595711,4.70274128 27.5537598,13.7066805 23.0894567,19.9071718 L23.0894567,19.9071718 Z" id="Combined-Shape"></path>
                        <path d="M93.5106118,0.582694788 C92.9579494,1.40626108 91.8516924,3.04310506 90.4166768,5.10705216 L90.4166768,5.10705217 C86.4255383,6.66058992 81.8321058,7.57548296 76.6677632,7.57548296 C70.6509936,7.57548296 65.4209266,6.33635376 61.0277743,4.30323786 L62.0894151,4.16271365 C57.9901335,7.59201863 53.1683937,9.65384615 47.6677632,9.65384615 C41.1384409,9.65384615 35.5873117,7.53881546 31.9094938,4.05269058 C31.8939615,4.03795144 31.8939615,4.03795144 31.8784751,4.02319028 L32.568829,3.29971844 L33.1656342,4.10210453 C28.5931395,7.50307199 22.9586597,9.65384615 16.3322368,9.65384615 C11.1724537,9.65384615 6.60270003,8.70451742 2.98560925,7.02747288 C1.48207603,4.54665507 0.391134681,2.67460912 0.086183655,2.14887971 C0.20584421,2.24154736 0.328654263,2.33307099 0.454615543,2.42307669 C3.74372617,4.77331239 9.14349067,6.65384615 16.3322368,6.65384615 C23.8310883,6.65384615 29.3232295,3.71375693 32.568829,1.29971844 C32.5783447,1.3087986 32.5878796,1.31786679 32.5974335,1.32692278 C35.7193106,4.28608319 40.8445261,6.65384615 47.6677632,6.65384615 C53.6531384,6.65384615 58.2915973,4.0360475 61.4477702,1.39571182 C64.7703314,2.93336669 69.902368,4.57548296 76.6677632,4.57548296 C84.6556534,4.57548296 90.3665629,2.28629345 93.5106118,0.582694788 L93.5106118,0.582694788 Z" id="Combined-Shape"></path>
                        <path d="M62.7954316,32.5497706 C61.8664839,33.0374674 60.7366735,33.345997 59.4243421,33.345997 C56.7704345,33.345997 54.8859994,31.5330819 53.8706763,30.2229417 C52.8824803,31.0093699 51.2622954,31.925157 49.0756579,31.925157 C48.0831468,31.925157 47.2073383,31.7364832 46.4543611,31.4568711 C47.1340209,32.5850949 47.9955019,33.9896572 48.9138528,35.4237515 C48.9676635,35.4246876 49.0215989,35.425157 49.0756579,35.425157 C51.3203326,35.425157 53.2403176,34.6416237 54.8047258,33.3966331 L52.6850381,33.1417791 C54.4049361,35.36108 56.6425837,36.845997 59.4243421,36.845997 C59.6486995,36.845997 59.8706053,36.8383503 60.0898754,36.8231696 C61.0532556,35.3637492 61.9996418,33.851318 62.7954316,32.5497706 Z" id="Combined-Shape"></path>
                    </g>
                    <path d="M98.3851001,62.0869755 C99.1082701,61.8784603 99.7405485,61.4486342 100.20215,60.875236 C100.290866,60.8065614 100.335526,60.7692308 100.335526,60.7692308 L100.284318,60.7692308 C100.733295,60.1674355 101,59.4214465 101,58.6135306 C101,56.6218936 99.3839634,55 97.3904813,55 L3.60951873,55 C1.62737725,55 0,56.6178327 0,58.6135306 C0,59.861224 0.634229713,60.9638079 1.59816549,61.613425 C2.22923311,62.447407 3.18078625,63.5128613 4.45461554,64.4230767 C7.74372617,66.7733124 13.1434907,68.6538462 20.3322368,68.6538462 C27.8310883,68.6538462 33.3232295,65.7137569 36.568829,63.2997184 C36.5783447,63.3087986 36.5878796,63.3178668 36.5974335,63.3269228 C39.7193106,66.2860832 44.8445261,68.6538462 51.6677632,68.6538462 C57.6531384,68.6538462 62.2915973,66.0360475 65.4477702,63.3957118 C68.7703314,64.9333667 73.902368,66.575483 80.6677632,66.575483 C89.4631347,66.575483 95.4979058,63.8000806 98.3851001,62.0869755 L98.3851001,62.0869755 Z" id="Grass" stroke="#84AA58" stroke-width="2" fill="#B8E986"></path>
                    <path d="M47.2606538,91.1126761 C47.0969643,90.8923003 47,90.6191213 47,90.3232647 C47,89.5873507 47.5906209,89 48.3191888,89 L68.6808112,89 C69.4083444,89 70,89.5924458 70,90.3232647 C70,90.5741938 69.9313316,90.8078502 69.8119405,91.0068389 C69.6944283,91.3308235 69.2948684,92.3375083 68.61066,93.1237026 C67.5362942,94.3582098 65.7724975,95.345997 63.4243421,95.345997 C60.7704345,95.345997 58.8859994,93.5330819 57.8706763,92.2229417 C56.8824803,93.0093699 55.2622954,93.925157 53.0756579,93.925157 C49.2436683,93.925157 47.1513158,91.1126761 47.1513158,91.1126761 L47.2606538,91.1126761 L47.2606538,91.1126761 Z" id="Grass" stroke="#84AA58" stroke-width="2" fill="#B8E986"></path>
                    <g id="trees" transform="translate(4.000000, 0.000000)" stroke-width="2">
                        <g id="Tree" transform="translate(42.000000, 60.000000)">
                            <rect id="Rectangle-5" stroke="#A18873" fill="#C0A791" x="8.92" y="20.6950464" width="3.2" height="8.30495356"></rect>
                            <ellipse id="Oval-29" stroke="#859B6C" fill="#ABCC85" cx="10.5" cy="10.6617647" rx="10.5" ry="10.6617647"></ellipse>
                        </g>
                        <g id="Tree" transform="translate(53.000000, 26.000000)">
                            <rect id="Rectangle-5" stroke="#A18873" fill="#C0A791" x="8.92" y="20.6950464" width="3.2" height="8.30495356"></rect>
                            <ellipse id="Oval-29" stroke="#859B6C" fill="#ABCC85" cx="10.5" cy="10.6617647" rx="10.5" ry="10.6617647"></ellipse>
                        </g>
                        <g id="Tree">
                            <rect id="Rectangle-5" stroke="#A18873" fill="#C0A791" x="18.0333333" y="39.249226" width="4.00952381" height="15.750774"></rect>
                            <ellipse id="Oval-29" stroke="#859B6C" fill="#ABCC85" cx="20" cy="20.2205882" rx="20" ry="20.2205882"></ellipse>
                        </g>
                        <g id="Tree" transform="translate(26.000000, 12.000000)">
                            <rect id="Rectangle-5" stroke="#A18873" fill="#C0A791" x="13.9758333" y="30.6857585" width="3.10738095" height="12.3142415"></rect>
                            <ellipse id="Oval-29" stroke="#859B6C" fill="#ABCC85" cx="15.5" cy="15.8088235" rx="15.5" ry="15.8088235"></ellipse>
                        </g>
                        <g id="Tree" transform="translate(70.000000, 10.000000)">
                            <rect id="Rectangle-5" stroke="#A18873" fill="#C0A791" x="15.0174405" y="32.6857585" width="5.02416667" height="12.3142415"></rect>
                            <ellipse id="Oval-29" stroke="#859B6C" fill="#ABCC85" cx="17.4609302" cy="17.8088235" rx="17.4609302" ry="17.8088235"></ellipse>
                        </g>
                    </g>
                    <g id="Well" transform="translate(70.000000, 29.000000)">
                        <rect id="Rectangle-48" stroke="#ADAFAB" stroke-width="2" fill="#CBD0C6" x="2" y="16" width="10" height="10"></rect>
                        <path d="M3.5,15.5 L3.5,9.97731948" id="Line" stroke="#ADAFAB" stroke-width="2" fill="#CBD0C6"></path>
                        <path d="M10.5,15.5 L10.5,9.97731948" id="Line" stroke="#ADAFAB" stroke-width="2" fill="#CBD0C6"></path>
                        <polygon id="Triangle-116" stroke="#B99595" stroke-width="2" fill="#D8AEAE" points="7 0 14 11 0 11"></polygon>
                        <path d="M2.5,7.5 L11.0146933,7.5" id="Line" stroke="#B99595" fill="#D8AEAE"></path>
                        <path d="M1.98614442,8.5 L12.012475,8.5" id="Line" stroke="#B99595" stroke-width="2" fill="#D8AEAE" opacity="0.6"></path>
                        <path d="M4.9690187,4.5 L9.01920223,4.5" id="Line" stroke="#B99595" fill="#D8AEAE"></path>
                        <path d="M3.97928798,5.5 L10.024785,5.5" id="Line" stroke="#B99595" stroke-width="2" fill="#D8AEAE" opacity="0.6"></path>
                    </g>
                </g>
            </g>
        </g>
    </g>
</svg>