<?xml version="1.0" encoding="UTF-8" standalone="no"?>
<svg width="17px" height="374px" viewBox="0 0 17 374" version="1.1" xmlns="http://www.w3.org/2000/svg" xmlns:xlink="http://www.w3.org/1999/xlink">
    <!-- Generator: Sketch 3.8.3 (29802) - http://www.bohemiancoding.com/sketch -->
    <title>Waterfall</title>
    <desc>Created with Sketch.</desc>
    <defs></defs>
    <g id="Page-1" stroke="none" stroke-width="1" fill="none" fill-rule="evenodd" stroke-linecap="round" opacity="0.8" stroke-linejoin="round">
        <g id="Desktop-Landscape" transform="translate(-651.000000, -80.000000)" stroke="#6C86A2" stroke-width="2" fill="#A0BAD9">
            <g id="Island-Group-2" transform="translate(619.000000, 20.000000)">
                <g id="Big-Island" transform="translate(4.000000, 6.000000)">
                    <g id="Waterfall" transform="translate(29.000000, 55.000000)">
                        <rect id="Water" x="0" y="0" width="15" height="372" rx="3"></rect>
                        <path d="M3.5,12.6702997 L3.5,65.8879714" id="Line"></path>
                        <path d="M11.5,57.7708089 L11.5,68.9264305" id="Line"></path>
                        <path d="M11.5,86.6648501 L11.5,121.634877" id="Line"></path>
                        <path d="M9.5,5.06811989 L9.5,48.653951" id="Line"></path>
                        <path d="M6.5,113.525886 L6.5,210.83511" id="Line"></path>
                        <path d="M5.5,77.8245871 L5.5,92.2411044" id="Line"></path>
                        <path d="M11.5,193.60218 L11.5,274.69342" id="Line"></path>
                        <path d="M11.5,298.00545 L11.5,368.959128" id="Line"></path>
                        <path d="M3.5,302.059946 L3.5,353.777122" id="Line"></path>
                        <path d="M7.5,337.531916 L7.5,363.913361" id="Line"></path>
                        <path d="M3.5,220.970027 L3.5,262.529933" id="Line"></path>
                        <path d="M6.5,254.412581 L6.5,301.049075" id="Line"></path>
                        <path d="M12.5,148.24805 L12.5,177.385519" id="Line"></path>
                    </g>
                </g>
            </g>
        </g>
    </g>
</svg>